<?xml version="1.0" encoding="utf-8"?>
<!-- Generator: Adobe Illustrator 21.1.0, SVG Export Plug-In . SVG Version: 6.00 Build 0)  -->
<svg version="1.1" id="Layer_1" xmlns="http://www.w3.org/2000/svg" xmlns:xlink="http://www.w3.org/1999/xlink" x="0px" y="0px"
	 width="1417.3px" height="701px" viewBox="0 0 1417.3 701" style="enable-background:new 0 0 1417.3 701;" xml:space="preserve">
<style type="text/css">
	.st0{fill:#F9F9E9;}
</style>
<path class="st0" d="M0,0v701h1417.3V0H0z M986.5,211.4c-0.5,0.7-1.1,1.3-1.5,2c-15.3,35.9-30.5,71.9-45.8,107.8
	c-2.5,5.9-5,11.7-7.6,17.7c-19.4-8.2-38.4-16.2-58.1-24.5v262.5H552.1V313.6c-20.5,8.7-40.2,17-60.2,25.4
	c-18.4-43.5-36.6-86.4-54.9-129.5c65.5-27.8,130.2-55.2,194.9-82.6c16.5,33.9,42.3,53.3,79.9,53.3c37.9,0,63.5-20,80-53.3
	c34.7,14.7,69.4,29.4,104,44.1c30.2,12.8,60.4,25.5,90.7,38.2V211.4z"/>
</svg>
