<?xml version="1.0" encoding="utf-8"?>
<!-- Generator: Adobe Illustrator 22.0.1, SVG Export Plug-In . SVG Version: 6.00 Build 0)  -->
<svg version="1.1" id="Layer_1" xmlns="http://www.w3.org/2000/svg" xmlns:xlink="http://www.w3.org/1999/xlink" x="0px" y="0px"
	 viewBox="0 0 957 1007" style="enable-background:new 0 0 957 1007;" xml:space="preserve">
<path d="M503.7,18.9c24.9-2.1,50-2.8,75-0.5c23.6,2.2,47.3,6.9,68.7,17.3c17.5,8.3,32.9,21.3,42.7,38.1c12.9-0.7,25.8-0.3,38.6,1.5
	c13,1.9,26.7,6.2,35.7,16.3c3.6,3.1,2.1,9.8-2.4,11.3c-6.4,2.4-13.4,0.8-20,1.1c-4,0.1-8.5,0.7-10.9,4.2c0.1,0.4,0.2,1.1,0.2,1.5
	c15.4,7.1,31.8,12.5,45.8,22.3c5.9,4.1,11.8,10.6,9.8,18.4c-7.5,1.1-12.9-6.1-20.4-5.4c4.2,13.3,12.4,24.9,21,35.7
	c11.5,14.3,24.5,27.6,33.1,44c4.7,9.1,8.4,19.1,8.7,29.4c0.2,9.4-0.3,18.8,0.9,28.2c1.1,9.7,5.5,18.6,9.4,27.4
	c14.2,29.4,35.2,54.7,52.9,82.1c11,16.9,20.8,34.8,27.3,53.9c9.9,29.9,12.6,61.5,13,92.8c0.1,28.6-1.8,57.1-2.5,85.6
	c-1.4,40.6,0.7,81.5,9,121.3c2.4,0.2,5,0,7.1,1.4c2.6,1.7,5.2,3.5,8.2,4.3c0,10.1,0,20.3,0,30.4c-1.7,0-3.3,0.1-5,0.1
	c-8.9,40-24.1,78.2-41.6,115.2c-17,36.1-35.4,71.6-50.1,108.8c-3.5-0.1-6.9,0-10.4-0.2c8.7-17.2,13.5-36.1,18-54.8
	c5.5-23,10.9-46.2,20-68.2c10.6-24.9,28.3-46,39.2-70.8c5.4-11.7,5.8-25.1,3.2-37.5c-3.9-18.9-11.6-36.9-13.9-56.1
	c-2.8-25.2-2.8-50.6-1.9-76c0.7-32.2,2.7-64.8-3.6-96.6c-2.2-11.7-5.8-23.1-10.1-34.2c7.5-1.2,12.9,5.8,20.3,5.4
	c-2.1-17.6-3.4-35.4-6.4-52.9c-2.4-13.3-5.8-26.9-13.7-38.2c-5-7-12.1-12.7-20.2-15.6c0.4,8.2,1.8,16.3,4.8,24
	c5.8,15.4,16.6,28.3,21.9,43.9c3.2,9.1,4.4,18.9,3.9,28.5c-8.8-9.7-15.3-21.2-21.5-32.7c-18.2-35-29.3-73-43-109.9
	c-7.6-21.3-17.8-41.5-28.7-61.3c-14.3-26.5-30.8-52.2-39.3-81.3c6.3,0.3,12.2,3.8,15.5,9.1c6.3,10.2,6.8,22.8,13,33
	c2.7,4.4,7.1,7.7,12.1,8.9c-10.7-34.9-30.2-66.5-54.1-93.9c-14-16.2-29.4-31.3-45.1-45.9c-0.9-0.7-1.7-1.4-2.6-2.1
	c-0.9,4.9,2.2,8.8,4.4,12.8c0.8,2.2-2.1,2.1-3.4,2.2c-2.4-0.1-5.2,0.6-7.3-1c-7.1-4.3-15.4-6.2-23.5-7.6c-20.2-3.2-40.7-3-61.1-3
	c-25,0.4-50,1.6-75,2.3c-15.2-0.1-30.8,0.9-45.8-2.4c-2.8-0.9-7.4-1.9-7.5-5.6c2.2-5.5,8.9-7.6,11.1-13.3
	c-13.7-2.2-27.6,2.2-41.2-0.5c-5.1-0.8-9.9-4.7-10.2-10.2c25.1-2.9,50.3,1.6,75.5,1.3c10.2-0.4,20.7-0.9,30-5.5
	c4.7-2.3,8.9-5.8,11.3-10.6c-21,2.9-42.2,2.2-63.2-0.4c-33.8-4.1-67-12.7-101-14.7c-30.4-1.2-61.2,0.8-90.4,9.6
	c-17.3,5.2-33.8,12.9-48.7,23.2c-26.9,18.5-47.5,44.9-62.5,73.7c16.1,1.7,32.3-1.2,48.4-1c7.8,0.2,16.1,1,22.6,5.7
	c-4,1.8-8.3,2.3-12.4,3.8c-25.1,8.2-46.5,24.4-65.8,42.1c-23,21-43.8,44.4-67.8,64.3c-10.3,8.4-20.9,16.5-32.7,22.7
	c-1.5-7.6,5.6-13.1,6.2-20.3c-0.2-3.1-3.4-4.3-5.8-5.3c-28.6,65.8-49,135.2-59,206.2c-6.4,46.7-8.1,94.1-2.5,141
	c1.5,16.1,7,31.4,12.5,46.5c8.4,22.8,18,45.1,24.8,68.5c8.2,27.8,10.5,56.9,17.8,84.9c4.5,17.4,13.9,33.2,24.2,47.8
	c13.2,18.2,30.2,33.5,48.7,46.3c30.1,20.8,63.5,36.8,91.1,61.1c-12.9-3.8-25.3-9.2-37.5-14.6c-33.6-15.4-65-35.8-91.8-61.3
	c-10.1-9.2-19.1-19.7-28.2-29.9c-0.5,19.1,2.8,38.2,8.5,56.4c6.5,20.9,17.1,40.2,26.8,59.7c-5,0-10,0.1-15,0l-0.6-0.6
	c-6.9-19-15-37.5-21.5-56.7c-8.5-24.5-13.9-50.3-13.9-76.3c-0.2-1.6,0.2-3.6-1-4.9c-25.3-28.6-41-64.2-51.5-100.6
	c-13.7-48-19.2-98-21.6-147.8c-3.5-81.6,1.7-163.3,7.9-244.7c3.4,5.8,4.4,12.6,4.8,19.1c0.9,14.6-2.5,29.4,0.4,44
	c1.3,6.9,4.9,13.4,10,18.2c5.2-20.1,16.9-38.1,20.8-58.6c1.1-5.8,1-14.2-5.4-16.9c-0.3,6,1.5,12.2-0.3,18.1c-1.6,4-6.6,2.9-9.9,2.1
	c-0.9-10.2-0.4-20.6,2.5-30.5c3.2-11.7,9.5-22.2,15-32.9c5-9.6,8.9-19.9,10.1-30.7c1.5-11.3,0.1-22.8-2.2-33.9
	c13.5-21.3,34.5-36,55.5-49.1c28.2-17.6,57.6-34,81.9-57.1c15.7-15.6,27.6-34.4,41.1-51.9c12.5-16.4,27.2-32.1,46.3-40.6
	c34-15.2,69.8-26.3,105.8-35.4C430,28.9,466.7,22.2,503.7,18.9 M438.8,42c-21.7,5.8-43.4,12.3-63.9,21.6c25.4-1.1,50.8,1.1,76,4.1
	c50,5.9,99.5,17.5,150,16.6c21.4-0.5,42.8-3.6,63-10.6c-4.3-7.9-10.1-15-17-20.8c-13.5-11.3-30.3-17.8-47.3-21.6
	C577.2,26.4,554,25.8,531,27C499.9,28.9,469,34.3,438.8,42 M640.9,91.2c-0.1,2.6,3.3,2.4,5.1,2.9c12.6,1.3,25.3-1.1,37.3-4.9
	c-9.4-1.2-18.9-1.1-28.3-0.9C650.2,88.7,645.2,88.9,640.9,91.2 M84.9,274.9c-1.8,4.4-0.1,10,4,12.4c8.4-6.8,18.2-13.9,20.3-25.1
	C99.6,259.8,88.5,265.5,84.9,274.9 M28.2,660.3c-0.2,4.5-0.6,9.1-0.3,13.6c0.5,24.8,3.8,49.6,9.4,73.8c4.8,20,11,39.9,21,57.9
	c6.1,10.4,13.6,21.1,25,26.1c-15.6-38.6-24-79.5-35.7-119.3C42.2,694.8,36.6,676.9,28.2,660.3z"/>
<path d="M603.5,186c11.4-10.1,26-17.6,41.5-17.3c13.4,0,26,5.9,36.8,13.4c18,12.8,32.2,29.9,46.5,46.5c25.3,28.4,48.4,59.2,66.1,93
	c9.6,18.6,17.7,38.3,21.1,59.1c2.5,16.1,1.8,33.4-5.6,48.2c-6.4,13.2-17.7,23.5-30.5,30.4C760,469.9,738,475,716,475.7
	c-39.6,1.2-78.7-11.3-112.7-31c-18-10.4-34.6-23-49.5-37.5c-14.6-14.6-27.6-31.2-35.8-50.3c-0.5-1.3-1.2-2.5-1.2-3.9
	c1.5-36.7,12.1-73.9,35.2-102.9c24.4-31.1,60.2-50.9,96.9-64c-1.2,4.8-3.8,9.2-7.8,12.2c-10.3,8.2-23.8,10.8-34.2,18.8
	c-13.3,9.9-26.3,20.2-38.1,31.9c-13.5,13.1-25.8,28-33.9,45.1c-6.5,13.7-10,29.3-7.7,44.5c2.8,13.7,9.9,26.1,17.3,37.9
	c11,16.9,24,32.5,38.8,46.2c12.8,11.8,28.8,19.5,45.1,25.1c24.2,8.2,49.9,11.9,75.5,11.8c22.5-0.5,45.6-3.5,66-13.7
	c13.3-6.5,25.2-17.1,30.4-31.3c5-13.9,4.7-29.1,2.7-43.6c-2.9-19.5-9.2-38.4-18.1-55.9c-3.9-7.4-8.3-14.7-14.1-20.9
	c-2.8-2.9-5.9-5.7-9.8-6.8c-6.4,2-12.1,5.7-18.2,8.3c-15.7,7.1-32.4,13.6-49.8,13c-11.2-0.3-22.5-6-28.2-15.8c0.2-8,0.1-16-0.4-24
	c0.1-8.5-1-17.6,3.2-25.4c2.2-4.4,7.2-6.6,12-6.8c0.1,17,0.1,34,0,51c14,6.2,29.6,9.7,44.9,7.3c11.4-1.7,22.1-7.3,30.1-15.6
	c0.5-0.7,2.2-1.9,1-2.7c-25-23.7-41.5-54.8-66.7-78.4c-6.8-6.3-14.2-12-22.3-16.7c-3.4-2.1-7.6-1.8-11.4-1.9
	c-13.9-0.1-26.9,5.4-40.4,7.6C610.8,188.1,606.9,187.8,603.5,186z"/>
<path d="M243.5,311.8c33.1-3,67,2.6,97.4,16.3c21.9,10.1,42.5,24.9,55.4,45.6c1.4,2.5,3.7,5,3.1,8.2c-2.5,38.4-17.4,75.1-38.3,107.1
	c-19.3,28.8-44.4,54.7-75.8,70.2c-20.5,10-44.1,14.8-66.7,10.2c-27.1-5.1-50.6-22.2-68.2-42.9c-0.4-23.4-3.6-46.6-7-69.7
	c-3.2-22.4-5.9-45.4-1.2-67.7c2.7-12.6,7.2-25.1,14-36.1C177.5,327.5,210.9,314.8,243.5,311.8 M193.6,340.6
	c-15.7,10.2-28.7,25.4-33.5,43.8c5.9,1.4,11.9,2.3,17.9,2.7c11.1,0.8,22.5-0.5,33.2,2.7c5.9,8.8,9.3,19.6,7.8,30.1
	c-1.5,10.6-8.3,20-17.1,25.9c-12.2,8.2-27.3,10.6-41.8,9.7c-3,21-1.6,43.2,7.9,62.4c8,16.9,22.6,30.4,40.2,36.9
	c19.4,7.4,40.9,7,61.1,3.3c4.1-0.5,7.3-3.2,10.8-5.2c23.4-14.9,41-36.9,56.6-59.4c10.8-15.5,21.2-31.4,32.2-46.8
	c8.6-12.6,17.2-25.5,21.4-40.3c2.2-8,2.6-17.3-2.4-24.4c-5.3-7.5-14.4-11-23-13c-2.8-0.7-6.4,2.5-4.2,5.2c4.4,6.2,12.3,9,16.6,15.4
	c1.2,1.5-0.1,3.4-1.6,4c-3.6,1.6-7.8,1.6-11.7,1.2c-5.6-0.6-10-4.9-12-10c-3.6-8.8-3.5-18.5-6.6-27.3c-1.8-5.3-6-9.3-9.8-13.2
	c-16.9-16.2-40.6-23.5-63.7-24.4C244.6,318.9,216.6,325.6,193.6,340.6 M155.1,394.5c-1.1,8.3-3.9,16.2-6.4,24.2
	c-2.7,8.6-4.3,17.7-3.7,26.8c11-0.6,22-1.4,32.8-3.9c7.2-1.8,14.5-4.6,19.9-9.9c5.8-5.6,8.5-13.8,8.6-21.7
	c-2.7-6.5-9.7-10.1-16.1-12C178.7,395,166.8,394.9,155.1,394.5z"/>
<path d="M607.1,510.1c7-3.8,15.1-4.3,22.9-4.9c22-1.4,44.1,1.1,65.6,5.5c22.3,4.7,44.3,11.6,64.5,22.3c9.6,5.2,18.9,11.4,26.6,19.3
	c-20.2,29.5-32.2,63.8-41.1,98.2C729.6,713,723,777.4,708,840.2c-5.6,23.2-12.3,46.2-21.8,68.1c-8.4,19.4-19,38.1-32.9,54.1
	c-17.3,20-40.1,35.2-65.4,43c-20,0.2-40,0-60,0.1c-16,0.3-31.8-3-46.7-8.8c-22.4-8.6-42.4-22.1-63.2-33.8
	c-14.8-8.2-30.4-15.8-47.2-18.8c-17.7-3.5-36.2-0.9-53,5.4c-28.2-20.2-53.5-45-72.1-74.4C225,842.6,213,804.5,210.9,766
	c-1.4-23.1,0.6-46.3,4.8-69c0.3-3.7,4.2-5.4,6.7-7.6c14.4-10.1,32.4-12.9,49.5-14.4c22.7-1.8,45.4-0.7,68.1-0.7
	c1.4-0.2,3.2,0.3,4.3-0.8c27.4-25.6,59.3-45.6,91.3-64.7c46.6-27.5,95-51.8,142.7-77.3C589,525.7,596.5,515.8,607.1,510.1
	 M618.3,517c-5.8,6.1-12.6,11.2-19.7,15.7c-30.5,19-66.2,27-97.1,45.3c2,7.1,4.5,14.1,7.7,20.8c5.5,11.1,13.8,21.6,25.5,26.6
	c11.4,5,24.6,3.2,35.7-1.8c12.4-5.7,23.2-14.7,32-25c13.5-16.1,23.1-35.7,26.2-56.5c20.7,8.9,32.6,30.2,53.1,39.5
	c1.3,0.5,3,1.7,4.3,0.5c20.3-12.1,36.4-29.7,54.3-44.8c-18.1-7.5-38-8.2-57.3-9.6C661.2,526,638.7,525.6,618.3,517 M743.2,551.2
	c-16.8,10.6-27.7,28.5-45.8,37.2c-8.3,3.8-18.4,6.8-27.2,2.5c-10.7-5-14.6-17.5-24-24.1c-5-3.7-11.3-4.5-17.3-4.3
	c-2.7,9.5-5.5,19-9.1,28.2c-6.4,16.2-15.4,32-29.4,42.8c-13.7,10.7-31.3,15.3-48.5,15.7c-7.9,1.5-13.8-5.4-18-11.1
	c-6.2-9-11.1-20.7-22.4-24.3c-2.2,27.4-9.7,54-15.3,80.8c-0.8,1.2-2.4,1.6-3.5,2.3c-14.8,7.2-31.1,12.3-47.7,11.7
	c-10.2-0.1-20.6-3.4-28.4-10.2c-2.7-2.3-4.6-5.3-7.1-7.7c-4.8,15.6-7,32.6-16.5,46.3c-5.4,8-14.4,12.8-23.8,14.1
	c3.4,11.1,9.1,21.4,16.4,30.4c10.7,12.8,24.5,22.7,39.3,30.3c23.2-13.2,42.7-32.7,55.8-55.9c6.8-1,13.7-1.1,20.4,0
	c12.3,1.8,23.4,8.2,35.7,10c8.8-2.4,15.7-9,20.3-16.6c10.1-16.6,12.3-36.8,22.7-53.2c5.2-8.3,13.5-14.8,23.2-16.5
	c-9,23.1-17.1,46.9-31.1,67.6c-8.9,13.2-21.6,25.2-37.7,28.5c-16.6,3.7-33.6-1.8-48.4-9.1c-5.9,14.7-14.4,28.8-26.8,38.8
	c-12.4,10.2-28.3,15.6-44.2,16.9c-3.9-1-7.4-3.2-10.9-5.2c-14.7-9-25.4-22.9-35.4-36.7c-10.5-14.4-20.9-29.4-35.8-39.5
	c-1.8,1.4-3.4,3.2-3.8,5.5c-1.7,8,0.7,16.3-0.9,24.4c-0.5,2.8-2.5,5.5-5.5,5.9c-16.6,2.5-34.6,1.8-49.5-6.8
	c-15-8.7-24.7-23.9-31.8-39.3c15.6,3.7,25.1,17.6,37.3,26.7c9.5,7.4,22,10.2,33.8,8.9c0.1-15.7,4.7-30.9,8.1-46.1
	c2.4-11.5,3.6-23.5,2.1-35.2c-12.5-0.8-25.2-0.5-37.6,1.8c-17.3,3-33.6,10-48.7,18.8c-2.7,16.1-4.4,32.4-4.3,48.7
	c0.1,39.6,10.3,79.5,31.9,112.9c18.2,28.5,44.2,52.2,74.6,67.1c1.5-1.8,2.6-4.4,0.9-6.5c-6.4-8.9-18.8-12.8-22-24
	c23.9,4.4,46.6,13.6,68.1,24.6c22.6,11.5,44.1,25.1,66.9,36.2c26.3,13.3,54.8,22.7,84.2,25.6c1.5-12.5-1.6-26.7-12.1-34.6
	c-15.9-12-39.5-9-53.9,4c3.4-7,4.9-14.8,8.7-21.7c2.3-4.3,6.5-8,11.5-8.6c15,5.9,30.1,11.7,45.9,15.1c1.9-12-2-24.1-0.6-36.2
	c0.5-3.6,1.7-7.7,5.2-9.4c5.7-0.8,11.6,0,16.8,2.2c6.8,2.9,12.3,8.1,19.3,10.8c3.2,1.3,6.7,1.9,10.2,2.2c0.1-4.6-0.3-9.1-0.2-13.7
	c0.1-11.3-0.8-22.9,2.7-33.9c1.9-5.9,6.1-11.6,12.2-13.5c7-1.1,14.3-0.6,21.3,0.7c8.7,1.7,16.6,5.7,24.7,9c0-6.2-0.2-12.6,2.5-18.4
	c2.8-6.6,8.6-11.3,14.9-14.2c14-6.4,29.8-7.2,43.9-13.1c2.1-54.1,14.5-107.3,31.3-158.6c12.1-37.5,27-73.9,39.9-111.1
	C761.6,544.6,751.3,545.9,743.2,551.2 M469.4,602.5c-33,16.5-59.7,42.6-90.6,62.5c-16.1,10.4-33.5,19-52.1,24
	c-1.2,0.5-2.6,0.4-3.5,1.4c-0.9,5.2-1.1,10.5-0.1,15.7c2.3,14.3,14.3,24.9,15.6,39.5c9.1,0.2,18.5-2.3,25.4-8.4
	c10-8.8,14.3-21.9,19-34c4.6-12,9.4-25,20.1-32.9c2-1.9,4.5,0.1,6.5,1.1c9.7,6.1,10.7,19.5,20.1,26c6.1,3.9,14.5,4,20.7,0.3
	c13.7-6.8,22.8-20.2,27.8-34.3c8.1-22.5,9.9-46.5,12.8-70C483.7,595.8,476.4,598.9,469.4,602.5 M661.4,842.3
	c-6.1,5.3-10,12.5-12.2,20.2c3.6,0.5,7.3,1,10.5,2.9c7,4,10.6,11.6,15,17.9c-7.6,2-13.2-5.7-20.4-6c-2.9,0.3-4,3.3-5.1,5.6
	c12.8,5.1,17.5,20.6,30.4,25.4c3.5-12.5,8.8-24.4,13-36.7c5-14.2,7.9-29.2,7.1-44.2C686.1,829.5,671.9,832.9,661.4,842.3 M598.1,863
	c-4.9,7.8-8,16.8-8.4,26.1c-0.8,14.6,3.9,28.9,10.5,41.7c6.4,12.2,14.4,23.6,23.6,33.8c9-2.3,17.9-6.6,23.9-13.9
	c7.8-9.4,10.3-22.3,8.7-34.2c-2.3-17.5-12-34.2-26.5-44.4C620.7,865.6,609.4,862.2,598.1,863 M537.3,913.9c0,25.3,0,50.7,0,76
	c11.8,3,24.3,3.2,36.3,1.5c12.1-1.8,24-5.4,34.6-11.6c-3-17.5-10.6-34.9-24.2-46.8C571,921.7,554.1,916,537.3,913.9z"/>
</svg>
