<?xml version="1.0" encoding="utf-8"?>
<!-- Generator: Adobe Illustrator 22.0.1, SVG Export Plug-In . SVG Version: 6.00 Build 0)  -->
<svg version="1.1" id="Layer_1" xmlns="http://www.w3.org/2000/svg" xmlns:xlink="http://www.w3.org/1999/xlink" x="0px" y="0px"
	 viewBox="0 0 94.5 90.9" style="enable-background:new 0 0 94.5 90.9;" xml:space="preserve">
<style type="text/css">
	.st0{fill:#FFFFFF;}
	.st1{fill:#FF0000;}
</style>
<path class="st0" d="M4.2,18.7c0,0.1,0.1,0.2,0.1,0.3c0.1-0.1,0.2-0.1,0.3-0.2s0.3-0.4,0.3,0s0.2,0.5,0.5,0.5s0.6,0.2,0.7,0.5
	c-0.1,0-0.3-0.1-0.4-0.1c-0.2,0-0.5,0-0.5,0c-0.1,0.4,0.2,0.4,0.4,0.4c0.1,0,0.1,0.1,0.2,0.1C6.3,20.5,6,20,6.1,19.9
	C6.2,20,6.3,20,6.4,20.1c0.2,0.1,0.5,0.6,0.5-0.1c0-0.1,0.2-0.3,0.3-0.3s0.5-0.1,0.3,0.2c-0.4,0.6,0,0.8,0.4,0.9
	c0.2,0.1,0.5,0.1,0.7,0.1c0.2-0.1,0.5-0.4,0.8-0.1c0,0,0.1-0.5,0.5-0.2c0-0.1,0.1-0.2,0.1-0.3c0.1-0.2-0.1-0.5,0.3-0.5
	c0.2,0,0.3,0.2,0.5,0.4c-0.2,0-0.5-0.1-0.5,0.2c0,0.2-0.1,0.7,0.4,0.3l0.1,0.1c0.1,0.2,0,0.7,0.4,0.5c0.3-0.2,0.1-0.5-0.1-0.8v-0.1
	c0.1,0,0.3-0.1,0.4-0.2c0.1-0.1,0.2-0.3,0.3,0.1c0.1,0.3,0.2,0.6,0.4,0.9c0.1,0.1,0.3,0.1,0.4,0.2c0-0.1,0.1-0.2,0.1-0.3
	c0-0.6,0.2-1,0.6-1.4c0.2-0.2,0.1-0.4-0.2-0.5c-0.3,0-0.5-0.2-0.8-0.2c-0.4,0-0.8,0-1.1-0.3c-0.1,0-0.3-0.1-0.4-0.1
	c-1.2-0.1-2.4-0.5-3.6-0.7c-0.6-0.1-1.3-0.1-2,0c-0.3,0.1-0.6,0.4-0.9,0.5c0.3-1,0.7-1.3,2.1-0.5c0.7,0.1,1.4,0.2,2.1,0.3
	c2.2,0.5,4.4,1,6.6,1.4c0.3,0.1,0.8,0.3,0.9,0.6c0.2,0.8,0.8,1,1.4,1.3c1.8,1,3.8,1.8,5.5,2.9c1.6,1.1,3.2,2.2,4.5,3.7
	c0.2,0.3,0.5,0.4,0.9,0.3c0.5-0.2,1.1-0.2,1.7-0.3c1.2-0.3,2.4-0.5,3.6-0.5c0.7,0,1.4,0.1,2.1-0.2c0.5-0.2,1.2-0.2,1.8-0.3
	c0.8-0.1,1.6-0.1,2.4-0.3c0.5-0.2,1.1-0.1,1.7-0.2c0.2-0.1,0.3-0.3,0.2-0.6c-0.9-2-2.3-3.7-3.7-5.3c-0.5-0.6-1.2-0.9-2-0.8
	c-0.5,0.1-1,0.1-1.4-0.2c-1.8-1.1-3.8-1.5-5.6-2.3c-1.6-0.7-1.4-0.4-1.4-2c0.1-1.4,0.9-1.9,2.2-1.5c2.3,0.7,4.5,1.6,6.8,2.3
	c0.7,0.2,1.1,0.5,1.2,1.1c0.1,0.8,0.6,1.1,1.1,1.5c1,0.8,1.9,1.7,2.6,2.7c1,1.4,2,2.8,3,4.2c0.2,0.3,0.4,0.4,0.7,0.4
	c0.8-0.1,1.6,0,2.4-0.3c1-0.4,1.8-0.1,2.7,0.2c2.3,0.7,4.5,1.5,6.7,2.3c2.1,0.8,4.3,1.6,6.4,2.4c0.2,0.1,0.3,0.3,0.5,0.4
	c-0.2,0-0.3,0.2-0.7,0.1c-1.9-0.8-3.9-1.5-5.8-2.1c-0.3-0.1,0.2-0.9-0.4-0.4c-0.5,0.3-0.7-0.1-1-0.2c-0.3,0-0.6-0.2-0.9-0.3
	c-0.3-0.1-0.6-0.2-0.9-0.3c-0.9-0.3-1.9-0.5-2.8-1c-0.4-0.2-0.8-0.3-1.2-0.4c-0.9-0.1-1.9-0.3-2.8-0.2c-1,0.1-1.9,0.1-2.9,0.4
	c-0.7,0.2-1.5,0.1-2.3,0.3c-2,0.4-4,0.6-6,1.2c0,0-0.1,0-0.2,0c-0.3,0-0.7,0.1-1,0.1c0.4,0,0.8,0.2,1.2,0.1c1.2-0.2,2.5-0.4,3.8-0.5
	c1.4-0.2,2.7-0.5,4.1-0.5c0.5,0,0.9-0.1,1.3-0.2c1.3-0.4,2.6-0.3,3.9-0.2c0.9,0,1.8,0.4,2.6,0.7c2.7,1,5.4,1.9,8.1,2.9
	c1.2,0.4,2.5,1,3.7,1.6c0.1,0,0.2,0,0.3,0.1c-0.1,0.1-0.3,0.1-0.4,0.1c-0.9-0.3-1.8-0.7-2.7-1c-1.3-0.5-2.7-1-4-1.6
	c-0.5-0.2-1-0.3-1.6-0.3c-0.4,0-0.7,0-1,0c-0.2,0-0.5-0.1-0.7-0.1c0.2,0,0.5-0.1,0.7-0.1l0.1-0.1c-0.1,0-0.1-0.1-0.2-0.1
	c-0.4-0.1-0.8-0.3-1.2-0.4c-0.1,0-0.1-0.1-0.2-0.1c-0.4,0.1-0.9,0.2-1.3,0.3c0.3,0.4,0.7,0.1,1,0.2c0,0,0.1,0.1,0.2,0.1
	c-0.1,0.1-0.1,0.1-0.2,0.1c-0.2,0-0.5,0-0.7,0c-0.1,0-0.1,0.1-0.2,0.2c-0.5-0.1-1.1-0.2-1.6-0.3c-0.1,0-0.1,0.1-0.2,0.1
	c0.1,0.1,0.1,0.2,0.1,0.2c0.9,0.4,1.7,0.8,2.7,0.4v-0.1c0.3,0.1,0.7,0.2,1,0.3l0.1,0.1c-0.1,0-0.1,0.1-0.2,0.1c-0.6,0-1.1,0-1.7,0
	c-0.4,0-0.6,0.1-0.7,0.5c-0.3-0.1-0.6-0.1-0.9-0.2c-0.1,0-0.2,0-0.3,0.1c0,0,0,0.1,0,0.2c0.2,0.4,1.3,0.6,1.6,0.3l-0.1-0.1
	c-0.1-0.1-0.2-0.2-0.3-0.3c0.2,0,0.5,0,0.7,0.1c0.3,0.1,0.5,0.3,0.7,0.5c-0.3,0.1-0.5,0.1-0.8,0.1c-0.2,0-0.5,0-0.8,0
	c-0.2,0-0.4,0.1-0.6,0.1c0.1,0.2,0.2,0.4,0.3,0.5c0.3,0.3,0.5,0.9,1.1,0.7l0.1,0.1c0,0.1,0,0.2-0.1,0.2c-0.1,0.1-0.3,0.1-0.4,0.2
	c-0.1,0-0.2,0.1-0.3,0.1c0.1,0.1,0.1,0.1,0.2,0.2c0.3,0.3,0.5,0.5,0.8,0.7c-0.1,0.1-0.3,0.1-0.4,0.1c0.1,0.1,0.1,0.2,0.2,0.3
	c0.2,0.2,0.5,0.3,0.7-0.1c0.3,0.1,0.3,0.3,0,0.4c-0.2,0.1-0.5,0.1-0.7,0.1c0.1,0.2,0.3,0.4,0.3,0.7c0.2,0.6,0.9,0.6,1,1
	c0.1,0.5,0.3,0.8,0.7,1.1c0.4,0.4,0.9,0.7,1.4,0.9c1.2,0.5,2.5,1,3.7,1.5c0.1,0,0.3,0.1,0.5,0.2c1.1,0.7,2.2,1.5,3.3,2.2
	c0.1,0.1,0.2,0.1,0.2,0.2c0.1,0.1,0.1,0.1,0.1,0.2c-0.1,0-0.1,0-0.2,0c-0.6-0.3-1.2-0.5-1.8-0.8c-1.8-0.9-3.7-1.7-5.5-2.6
	c-0.4-0.2-0.9-0.3-1.3-0.4c-0.2-0.1-0.3,0.1-0.5,0.2l0,0c-0.4-0.1-0.9-0.2-1.4-0.3c-0.7-0.2-1-0.2-1.5,0.1l0,0
	c-0.8-0.1-1.5-0.5-2.3,0c-0.1,0-0.3-0.1-0.4-0.1c-0.2,0-0.4,0-0.6,0c0.2,0.2,0.4,0.3,0.6,0.4c0.2,0.2,0.6,0.3,0.6,0.4
	c0.1,0.7,0.7,0.8,1.1,1.1c0.5,0.3,1.1,0.5,1.6,0.8c1.7,0.9,3.5,1.8,5.2,2.7c0.8,0.4,1.5,0.6,2.4,0.6c0.5,0,1.1,0.2,1.6,0.2
	c0.7,0,1.5,0,2.3-0.2c0.7-0.3,1.5,0.1,2.2-0.3c0.1,0,0.3,0,0.4,0c1.4,0,2.8-0.2,4.1-0.5h0.1c1.3-0.1,2.7-0.1,4-0.3
	c1-0.2,2.1,0,3.2-0.4c0.2-0.1,0.5,0,0.8,0c0.4-0.1,1,0.2,1.2-0.4c0-0.1,0.2-0.1,0.3-0.1c0.7,0.2,1.4-0.4,2.1,0
	c0.7-0.3,1.5-0.2,2.3-0.3c0,0,0.1-0.1,0.1-0.2c0-0.1-0.1-0.2-0.1-0.2c-0.2-0.1-0.4-0.1-0.6-0.2s-0.3-0.2-0.5-0.3
	c0.2,0,0.5-0.1,0.7-0.1c0.3,0,0.6,0.1,0.9,0.2c0.2,0,0.4,0.2,0.6,0.2c0.3,0,0.7-0.1,1-0.1c-0.2-0.2-0.5-0.4-0.8-0.5
	c-0.7-0.3-1.5-0.5-2.2-0.7c0,0-0.1-0.1-0.2-0.2c-0.1-0.1-0.1-0.1-0.2-0.1l0.1-0.1c0.2,0,0.3,0,0.4,0c0.3,0.1,0.6,0.4,0.9,0.1
	c-0.3-0.1-0.5-0.3-0.8-0.4c-1-0.5-2-1-3-1.6c-1.2-0.7-2.5-1.2-3.8-1.7c-1.4-0.6-2.8-1.1-4.2-1.7c-0.1,0-0.2-0.1-0.3-0.2
	c0.2,0,0.4,0,0.5,0c1,0.3,1.9,0.7,2.9,1.1c1.7,0.6,3.4,1.3,5.1,2c0.3,0.1,0.6,0.5,1,0.2c0,0,0.1,0.1,0.2,0.1
	c1.1,0.5,2.2,0.7,3.3,1.1c1.3,0.4,2.6,1,3.9,1.5c0.3,0.1,0.5,0.1,0.8,0.2c-0.1,0.3,0.7,0.3,0.3,0.8c0.4,0,0.7,0,1.1,0
	c0-0.1,0-0.4-0.1-0.4c-0.4-0.2-0.9-0.4-1.3-0.5c-0.2-0.2-0.4-0.4-0.6-0.5c-2.2-1-4.4-1.9-6.7-2.7c-1.8-0.6-3.4-1.4-5.2-2
	c-1.7-0.6-3.3-1.2-4.9-1.8c-0.3-0.1-0.6-0.2-0.8-0.3c-0.1,0-0.1-0.3-0.1-0.4c0.3,0,0.7-0.2,0.7,0.3c0.2,0,0.5-0.1,0.7-0.1
	c0.9,0.5,1.9,0.8,2.9,1c0,0.1,0.1,0.4,0.2,0.4c0.5,0.2,1.1,0.3,1.7,0.5c0,0.1,0.1,0.1,0.1,0.2c0.2-0.4,0.4,0,0.6,0
	c0.9,0.3,1.7,0.4,2.5,0.7c0.6,0.2,1.2,0.6,1.8,0.8c2.9,0.8,5.7,2,8.5,3.1c0.8,0.3,1,0.9,1.1,1.6c0,1-0.1,1.2-1.1,1.6
	c-0.3,0.1-0.5,0.1-0.7,0.2c-0.7,0.2-1.4,0.3-2,0.6c-1.1,0.6-1.9,1.5-2.7,2.5c-1.2,1.4-2.4,2.9-3.8,4.1c-0.9,0.8-1.9,1.6-3.2,1.8
	c-0.4,0.1-0.7,0.2-1.1,0.4c-0.5,0.2-1,0.2-1.5,0.2c-0.9,0-1.7,0.1-2.6-0.2c-0.5-0.2-0.6,0-0.4,0.6c0.2,0.7,0.3,1.3,0.5,2
	c0.1,0.3,0.3,0.6,0.6,0.8c1.5,1.2,3.2,2.1,4.3,3.7c0.9,1.4,1.8,2.7,2.4,4.2c0.5,1.3,0.4,2.7,0.6,4c0.2,1.8,0,3.6-0.7,5.4
	c-0.6,1.4-1.1,2.8-2.4,3.8c-0.2,0.1-0.3,0.3-0.5,0.5c-0.9,0.9-2,1.5-3.1,2.1c-1.7,0.9-3.8,0.7-5.6,1.3c-0.1,0-0.3,0-0.4,0
	c-0.7,0.1-1.4-0.1-2.1-0.3c-0.6-0.2-1.3-0.1-1.8-0.4c-0.6-0.4-1.1-0.6-1.7-0.8c-0.4-0.1-0.8-0.3-1.1-0.6c-1.1-1-2.4-2-3.2-3.4
	c-0.3-0.5-0.7-1-0.8-1.5c-0.1-0.4-0.3-0.7-0.5-1c-0.2-0.3-0.4-0.7-0.3-0.9c0.2-0.5,0.2-0.9-0.2-1.3c-0.1-0.2-0.1-0.5-0.1-0.7
	c0-0.5,0-0.9-0.1-1.3c-0.2-0.9-0.2-1.8,0-2.7c0.2-0.8,0.4-1.6,0.4-2.5c-0.1-0.3,0.1-0.6,0.2-0.9c0.4-0.7,0.9-1.5,1.3-2.3
	c0.1-0.2,0-0.3-0.1-0.4c-0.7-0.9-1.5-1.7-2.1-2.6c-0.3-0.5-0.7-0.5-1.2-0.5c-1.3,0.1-2.6-0.1-3.7-1c-0.2-0.2-0.5-0.3-0.7-0.5
	c-0.6-0.7-1.3-0.5-2-0.2c-1.2,0.5-2.1,1.3-3.1,2.1c-0.3,0.2-0.5,0.6-1,0.6c-0.1,0-0.2,0.3-0.4,0.5c-0.2,0.3-0.4,0.6-0.7,0.8
	c-1,0.9-2.1,1.7-3.1,2.7c-0.9,0.9-1.9,1.4-3,1.5c-1.4,0.2-2.8,0.2-4.2-0.3c-0.4-0.1-0.8-0.2-1.1-0.4c-1.7-0.9-2.6-2.5-3.2-4.2
	c-0.1-0.3-0.2-0.6-0.2-0.9c-0.1-0.9-0.1-1.9,0.2-2.9c0.2-0.5,0.4-1,0.6-1.5c0.4-1.1,0.9-2.2,1.1-3.3c0.2-1.2,0.7-2.5,0.5-3.8v-0.1
	c0.3-1.8,0.1-3.4-0.8-4.9c-0.4-0.8-0.9-1.5-1.4-2.2c-1.1-1.7-2.1-3.4-2.5-5.4c-0.2-0.6-0.2-1.3-0.4-1.9s-0.1-1.2-0.9-1.5
	s-1.1-0.9-1-1.7c0-0.4-0.1-0.7-0.4-0.9c-0.5-0.5-1.1-0.9-1.6-1.4c-1.8-1.8-3.8-2.9-6.2-3.7c-0.4-0.2-0.8-0.3-1.1,0
	c-0.4,0.3-0.7,0.1-1,0c-1.4-0.5-2.7-0.8-4.1-1c-1-0.2-1.9-0.3-2.8-0.5c-0.3,0-0.7-0.2-1-0.2c-0.7,0.1-1.1-0.4-1.5-0.8
	c-0.6-0.6-0.6-1.2-0.1-2.1C4.3,18.5,4.2,18.7,4.2,18.7z M73.7,44.6c0,0-0.1,0.1-0.1,0.2c-0.2,0-0.4,0-0.6,0c0,0.1,0,0.3,0,0.3
	c-0.4,0.1-0.8,0.3-1.2,0.3c-1.5,0.1-3.1,0.1-4.6,0.3c-1.6,0.2-3.3,0.3-4.9,0.7c-1,0.3-2,0.5-3,0.7c-0.3,0-0.3,0.2-0.3,0.4
	c0,0.1,0.1,0.2,0.1,0.2c0.9-0.3,1.9-0.1,2.8-0.4c1.3-0.4,2.6-0.5,3.9-0.7c1.4-0.2,2.7-0.7,4.1-0.6c0.3,0,0.7-0.1,1.1-0.2
	c1.3-0.4,2.6-0.2,3.9-0.7c0.8-0.3,1.7-0.2,2.6-0.3c0.8-0.1,1.7-0.3,2.5-0.4c1.1-0.2,2.3-0.4,3.4-0.6c0.1,0,0.2-0.1,0.3-0.1
	c-0.1,0-0.2-0.1-0.3-0.1c-0.9,0.1-1.8,0.2-2.7,0.3c-0.8,0.1-1.7,0.3-2.6,0.4c-0.7,0-1.5,0.1-2.2,0.3c-0.7,0.2-1.4,0.2-2.1,0.1
	C73.8,44.7,73.7,44.6,73.7,44.6c0.8,0,1.6-0.3,2.5-0.4c0,0,0.1-0.1,0.1-0.2c0.3,0,0.7,0,1.3-0.1c0.1,0,0.2-0.1,0.3-0.2
	c0.7-0.1,1.5,0.1,2.3-0.2c0.7-0.2,1.5,0.1,2.2-0.2c0.4-0.1,0.8,0,1.2,0c0.3,0,0.7-0.2,1.1-0.2c0.3,0,0.7,0.1,1.1,0.2
	c0.1,0.1,0.2-0.1,0.3-0.1c-0.1,0-0.2-0.1-0.3-0.1S85.6,43,85.5,43c0.1,0,0.1-0.1,0.2-0.1c0.7-0.2,1.3-0.3,2-0.5
	c0.1,0,0.2-0.1,0.3-0.1c-0.1,0-0.3-0.1-0.4-0.1c-0.9,0.1-1.8,0.2-2.6,0.3c-0.8,0.1-1.7,0.2-2.5,0.4c-0.8,0.1-1.5,0.3-2.3,0.4
	c-0.7,0.1-1.5,0.2-2.2,0.3c-0.1,0-0.2,0.1-0.3,0.2c-0.3,0-0.7,0-1.1,0c-0.1,0-0.2,0.1-0.3,0.2C75.4,43.9,74.6,44.3,73.7,44.6z
	 M60,65.7c-0.6,0.3-0.6,0.3-0.3,0.6c0.3,0.2,0.5,0.5,0.7,0.7s0.1,0.4-0.2,0.5c-0.3,0.1-0.5,0.2-0.8,0.2c-0.4,0-0.2,0.2-0.1,0.4
	c0.1,0.2,0.3,0.5,0.2,0.7c0,0.2-0.3,0.3-0.5,0.5c0.1,0.1,0.4,0.2,0.5,0.4c0.2,0.5,0.5,1,0.1,1.6c-0.1,0.1-0.1,0.3-0.2,0.4
	c-0.2,0.3-0.2,0.5,0.3,0.5c0.6,0,0.6,0.1,0.2,0.7c0-0.3-0.3-0.3-0.5-0.2c-0.4,0.1-0.1,0.3,0,0.4c0.3,0.6,0.2-0.1,0.3-0.1
	c0.1,0,0.1-0.1,0.2-0.1c-0.1,0.5,0.1,0.6,0.5,0.5c0.2,0,0.4-0.1,0.6-0.1c0,0.2-0.1,0.5-0.2,0.7c0,0-0.1,0.1-0.2,0.1
	c-0.1-0.1-0.1-0.4-0.2-0.4c-0.3,0-0.5,0.2-0.5,0.5c0,0.1,0.2,0.1,0.4,0.2c-0.1,0.6,0.2,1,0.5,1.4c0.3,0.3,0.5,0.4,0.8,0.1
	c0-0.1,0.2,0,0.3,0c-0.1,0.1-0.1,0.2-0.2,0.3c-0.1,0.2-0.4,0.3,0,0.4c0.2,0.1,0.2,0.8,0.6,0.3c0.1-0.1,0.2-0.2,0.3-0.2
	c0-0.1,0.1,0,0.2,0v0.2c-0.1,0.1-0.3,0.2-0.4,0.4c-0.1,0.1-0.1,0.2-0.1,0.3c0.1-0.1,0.2-0.1,0.3-0.1c0.1-0.1,0.1-0.1,0.2-0.2
	c0.1-0.2,0.2-0.3,0.4-0.1c0.2,0.1,0.2,0.2,0.1,0.4c-0.1,0-0.1,0.1-0.1,0.2s0,0.2,0,0.3c0.1,0,0.2,0,0.3-0.1s0.2-0.2,0.3-0.3
	c0.2-0.2,0.3-0.2,0.4,0c0,0.1,0.1,0.3,0.1,0.4c-0.1,0-0.2,0-0.2,0c-0.3-0.2-0.4,0.1-0.4,0.3c0,0.1,0.4,0.3,0.4,0.3
	c0.3-0.3,0.6,0.1,0.9,0c0.1,0.2,0.1,0.4,0.2,0.5c0.1,0.1,0.3,0.1,0.5,0.2c0-0.1,0.1-0.3,0.1-0.4h0.1c0.2,0.2,0.4,0.6,0.6,0.6
	c0.5,0.1,0.1-0.5,0.4-0.7c0.2-0.2,0.3-0.2,0.4,0c0.2,0.2,0.3,0.4,0.4,0.6c0.1,0,0.1,0.1,0.2,0.1c0-0.1,0.1-0.1,0.1-0.2
	c0-0.3-0.2-0.7-0.2-1c-0.1-0.1,0.1-0.3,0.1-0.4c0.1,0.1,0.3,0.1,0.4,0.2c0.1,0.1,0.1,0.3,0.2,0.5c-0.4,0.1-0.2,0.3-0.1,0.5
	c0.1,0.3,0.1,0.6,0.5,0.5c0.1-0.1,0.2-0.2,0.3-0.3c0.4,0,0.7,0.1,1.1,0c0.4-0.1,0.6-0.3,0.6-0.7s0-0.6,0.5-0.4
	c0.5,0.2,0.6,0.2,0.6-0.4c0-0.4,0.2-0.5,0.5-0.5c0.1,0,0.3-0.1,0.4-0.1c-0.5-0.2,0-0.6-0.2-0.9c-0.3-0.3-0.2-0.6,0.1-0.7
	c0.2,0,0.5,0,0.7,0c0.1,0,0.1,0,0.1-0.3l0.1-0.1c0.6,0,0.6-0.2,0.3-0.7c-0.2-0.2,0-0.5,0.4-0.5c0.2,0,0.4-0.1,0.5-0.2
	c0.1-0.1,0.1-0.4,0.2-0.6L75,73.2c-0.2-0.2-0.3-0.3-0.5-0.5c0.2-0.2,0.5-0.3,0.6-0.5c0.1-0.1,0.3-0.3,0.1-0.6
	c-0.1-0.2-0.1-0.6,0-0.8c0.1-0.5,0.1-0.1,0.2,0c0.2,0.3,0.2,0,0.2-0.1c0-0.6,0-1.1,0-1.7c0-0.2,0.1-0.4,0.1-0.6
	c0.1,0.2,0.2,0.3,0.3,0.5c0.1,0,0.1,0.1,0.2,0.1c0-0.1,0.1-0.1,0.1-0.2c0-0.4,0.1-0.8,0-1.2c0-0.3-0.2-0.5-0.4-0.8h-0.2
	c0,0.1-0.1,0.2-0.1,0.3c0-0.1-0.1-0.1-0.1-0.2c0-0.5-0.2-1-0.5-1.4c-0.6-1-0.8-2.2-1.6-3c-0.1-0.1-0.1-0.2-0.1-0.3
	c0.1-0.9-0.8-1-1.2-1.5c-0.5,0.1-0.7-0.2-0.9-0.5c-0.2-0.4-0.6-0.6-1-0.5c-0.1,0-0.3-0.1-0.4-0.1c0.1,0,0.2-0.1,0.3-0.2L70,59.3
	c-0.4-0.1-0.8-0.3-1.2-0.4c-0.2-0.1-0.4,0.2-0.6,0.4c0-0.3-0.1-0.5-0.1-0.7c-0.1,0.1-0.3,0.1-0.3,0.2c-0.2,0.2-0.3,0.5,0.1,0.7
	c0.1,0.4-0.2,0.6-0.4,0.8c-0.3,0.3-0.3,0-0.3-0.2c0-0.1-0.1-0.2-0.1-0.3c0,0.1-0.1,0.1-0.1,0.2c-0.1,0.1-0.1,0.3-0.2,0.4
	c-0.1,0.1,0.2,0.5-0.2,0.4c-0.2,0-0.3-0.4-0.3-0.6c0-0.4,0-0.9,0-1.3c0-0.5-0.2-0.2-0.4-0.2c-0.3-0.1-0.5-0.2-0.7-0.2
	c-0.7-0.1-1.2,0.6-1,1.3c0.1,0.5,0.2,0.9,0.2,1.4c0,0.1-0.1,0.2-0.1,0.3c-0.1,0-0.1-0.1-0.2-0.2c-0.2-0.3-0.5-0.7-0.8-1.1
	c-0.1-0.1-0.2-0.1-0.3-0.2c0,0.1,0,0.2,0,0.3c0.4,0.8,0.9,1.7,1.3,2.5c0,0.2,0.2,0.3,0.3,0.5c0.3,0.5,0.4,0.5,0.7,0s0.4-0.2,0.6,0
	c0.3,0.4,0.3,0.4,0.6,0c0-0.1,0.1-0.1,0.1-0.2c0.3-0.4,0.5-0.4,0.8,0c0.2,0.2,0.2,0.2,0.3,0c0.1-0.1,0.1-0.3,0.2-0.4
	c0.1-0.2,0.3-0.3,0.4-0.4c0,0.1,0.1,0.3,0.1,0.5s0,0.3,0,0.4c0.1,1,0.3,1.2,1.2,0.9c0.5-0.2,0.5,0,0.5,0.4c0,0.3,0.2,0.6,0.4,0.6
	c0.6,0,0.5,0.4,0.5,0.8c-0.1,0.8,0.2,1.5,0.9,2c0.2,0.2,0.3,0.3,0.1,0.5c-0.2,0.2-0.1,0.4-0.2,0.6c-0.2,0.3-0.2,0.5,0.2,0.6
	c0.1,0,0.3,0.1,0.4,0.2c0.3,0.2,0.3,0.3,0.1,0.5c-0.3,0.3-0.7,0.6-0.4,1.1c0.1,0.1-0.1,0.5-0.2,0.5c-0.6,0.3-0.3,1.1-0.9,1.2
	c-0.1,0-0.1,0.1-0.1,0.2c0.2,0.7-0.4,1-0.6,1.4c-0.2,0.4-0.4,0.6-0.9,0.3c-0.1-0.1-0.5-0.1-0.5,0.3c0,0.5-0.3,0.4-0.6,0.3
	c-0.7-0.3-0.7-0.3-1,0.5c0,0.1-0.1,0.1-0.1,0.2c0-0.1-0.1-0.2-0.1-0.2c0.1-0.7-0.7-0.3-0.9-0.7c-0.1-0.1-0.3-0.1-0.4-0.1
	c-0.2,0-0.5,0.3-0.8,0.2c-0.2,0-0.3-0.5-0.4-0.7c-0.5-0.7-1.3-1.1-1.5-2c-0.1-0.1-0.5,0-0.7-0.1C62,72.6,61.9,72.4,62,72
	c0-0.2,0.1-0.4,0.1-0.6c0.1-1,0.1-1-1-1.1c-0.4-0.1-0.5-0.2-0.2-0.6c0.1-0.2,0.2-0.2,0.1-0.5c-0.1-0.5,0-1,0-1.5
	c0,0,0.1-0.1,0.2-0.1s0.2,0.2,0.3,0.2c0.4,0.1,0.5,0.1,0.2,0.4c-0.1,0.1-0.2,0.2-0.3,0.3c-0.1,0.1-0.2,0.3-0.1,0.4
	c0.1,0.2,0.3,0.2,0.5,0.3l0.1-0.1c0-0.4,0.2-0.7,0.2-1.1c0-0.5,0-0.5-0.5-0.4c-0.2,0-0.3,0-0.5,0c0-0.2,0.1-0.3,0.1-0.5
	c0-0.1-0.1-0.3,0-0.4c0.1-0.2,0.4-0.4,0.4-0.5c-0.1-0.2-0.3-0.4-0.5-0.6c-0.4-0.4-0.9-0.8-1.3-1.2c-0.1-0.2-0.3-0.3-0.5-0.3
	s-0.4,0-0.2,0.3c0.1,0.1,0.1,0.2,0.1,0.4c-0.1,0-0.1-0.1-0.2-0.1c-0.1-0.2-0.3-0.3-0.4-0.4c-0.1,0.2-0.2,0.5-0.1,0.7
	c0.2,0.5,0.6,0.4,1,0.5C59.5,65.5,59.5,65.5,60,65.7z M48.7,52c0.4,0.4,0.9,0.9,0.8,1.3c-0.4,0.1-0.4,0.1-0.3,0.3
	c0.1,0.1,0.1,0.3,0.2,0.4c0,0,0.2,0.1,0.3,0.1c0-0.1,0-0.2,0-0.3c0.2,0.2,0.4,0.3,0.5,0.5c0.4,0.6,0.8,1.1,1.4,1.4
	c0.8,0.4,1.7,0.4,2.5,0c0.1,0,0.1-0.1,0.2-0.1c-0.1,0-0.1-0.1-0.2-0.1c-0.3,0-0.7,0-0.9-0.4c-0.1,0,0-0.1,0-0.2h0.2
	c0.2,0.2,0.4,0.4,0.8,0.3c0.1,0,0.2-0.2,0.3-0.3c-0.2-0.1-0.3-0.2-0.4-0.2c-0.1-0.1-0.1-0.1-0.2-0.1c0.1,0,0.1-0.1,0.2-0.1
	c0.2,0,0.5,0,0.7,0c0.1,0,0.1-0.2,0.1-0.2c-0.2-0.4,0.2-0.5,0.4-0.7c0.4-0.2,0.4-0.2,0-0.5c-0.1,0-0.1-0.1-0.2-0.1
	c-0.1-0.1-0.3-0.2-0.1-0.4c0.1-0.1,0.3-0.2,0.4,0c0.3,0.4,0.6,0.3,0.7-0.1c0.1-0.3,0.6-0.6,0.1-1c0,0,0.2-0.4,0.4-0.5
	c0.3-0.1,0.3-0.2,0.3-0.5c0-0.4-0.6-0.2-0.4-0.6c0.1-0.1,0.4-0.1,0.6-0.2s0.3-0.4,0.3-0.6c0-0.1-0.3-0.2-0.4-0.3
	c-0.1-0.1-0.1-0.1-0.2-0.2c0.1-0.1,0.1-0.1,0.2-0.1c0.1-0.1,0.2-0.1,0.3-0.1c-0.1-0.1-0.1-0.3-0.2-0.3c-0.8-0.3-1.2-1-1.9-1.4
	c-0.7-0.4-1.4-0.9-2.1-1.2c-0.9-0.3-1.8-0.8-2.6-1.3c-1.3-0.8-2.6-1.4-3.9-2.2c-0.4-0.2-1.1,0.1-1.4-0.4c-0.6,0.1-0.8-0.6-1.3-0.6
	c-0.3,0-0.5-0.6-0.9-0.2c0,0-0.2-0.2-0.3-0.3c-0.4-0.3-0.7-0.6-1.1-0.9c-0.2-0.2-0.3-0.2-0.4,0.2c-0.1,0.4-0.2,0.4-0.7,0.1
	c0.5-0.1,0.6-0.4,0.4-0.6c-0.3-0.3-0.7-0.6-1.1-0.8c0,0-0.1,0.1-0.2,0.1c0,0.1,0.1,0.1,0.1,0.2c0.1,0.2,0.2,0.3,0.3,0.5
	c-0.3,0-0.7-0.1-0.7-0.5c-0.1-0.9-0.9-0.9-1.5-1.2c-0.2,0.3-0.4,0.1-0.6-0.1c-0.3-0.3-0.6-0.6-0.9-0.8c-0.2-0.2-0.5-0.3-0.7-0.2
	c-0.5,0.3-0.4-0.2-0.6-0.3c-0.2-0.2-0.4-0.4-0.6-0.5c-0.1-0.1-0.3-0.2-0.5-0.3c-0.5-0.3-1-0.6-1.6-0.9c0,0-0.2,0.1-0.3,0.2l0,0
	c-1-1-2.3-1.4-3.5-2.1c-0.2-0.1-0.4-0.2-0.6-0.3c-0.2-0.1-0.4-0.3-0.6-0.3c-0.2,0-0.3,1.3-0.1,1.5c0.4,0.6,0.6,0.9,0.6,1.3
	c0,0.2-0.1,0.4,0,0.5c0.1,0.1,0.3,0,0.4,0.1c0.1,0.1,0.1,0.2,0.1,0.4l0.1,0.1c0.8,0.5,0.8,0.5,1.3,1.5c0.2,0.4,0.5,0.8,0.5,1.2
	c0.1,0.6,0.3,1.1,0.7,1.5c0.7,0.8,1.3,1.6,2,2.4c0.1,0,0.2,0,0.3,0c0-0.1,0-0.1,0-0.2S33.1,42.1,33,42c-0.4-0.7-0.9-1.5-1.3-2.3
	c-0.1-0.1,0-0.2,0-0.3c0.1,0.1,0.2,0.1,0.3,0.2c0.6,0.9,1.3,1.9,1.9,2.9c0.7,1.2,1.9,1.9,2.9,2.8c0,0,0.1,0,0.2,0
	c-0.1-0.1-0.1-0.2-0.1-0.3c-0.1-0.1-0.2-0.1-0.2-0.2c-0.1-0.1-0.1-0.3-0.1-0.4c0.1,0,0.2,0.1,0.3,0.1c0-0.2,0.1-0.3,0.1-0.5
	c0-0.1-0.1-0.3-0.1-0.4c0.1,0,0.2,0,0.3,0.1c0.9,0.7,1.7,1.5,2.4,2.5c-0.1,0-0.3,0.1-0.4,0.1c0,0.1,0,0.3,0.1,0.4
	c0.3,0.2,0.7,0.4,1.1,0.6c0.1,0,0.2-0.1,0.2-0.1c0.1-0.1,0-0.2,0-0.2c-0.2-0.2-0.5-0.4-0.7-0.6c0.5-0.1,0.5-0.1,0.3-0.3
	c0-0.1-0.2-0.2-0.2-0.3s0-0.2,0-0.3c0.1,0,0.2,0.1,0.2,0.1c0.2,0.3,0.5,0.6,0.7,0.9c0.3,0.5,0.7,0.9,1.1,1.4
	c0.1,0.1,0.2,0.1,0.3,0.1c0-0.1,0-0.2,0-0.3s-0.1-0.2-0.1-0.3c0-0.1,0.1-0.3,0.1-0.4c0.1,0.1,0.3,0.1,0.4,0.2
	c0.2,0.2,0.5,0.4,0.4,0.8c-0.1-0.1-0.3-0.1-0.4-0.2c-0.1,0.2-0.2,0.5-0.1,0.6c0.4,0.3,0.6,0.7,1.1,0.7c0,0,0.1-0.1,0.1-0.2
	c0.2,0,0.3,0.1,0.4,0.2c0.4,0.3,0.4,0.3,0.6-0.2c0.1-0.3,0.1-0.3,0.5,0c-0.1,0.1-0.2,0.2-0.2,0.2c0.2,0.6,0.4,1.2,0.9,1.6
	c0.3,0.2,0.7,0.5,1.1,0.8c0,0,0.2-0.1,0.3-0.2c0.2,0,0.3,0.1,0.5,0.2c0.1,0.2,0.2,0.5,0.3,0.7c0.2,0.3,0.3,0.6,0.7,0.6
	C48.8,52.6,48.8,52.3,48.7,52L48.7,52L48.7,52z M73.8,47.9L73.8,47.9c0-0.1,0-0.2,0.1-0.2c0.3,0,0.6,0,0.9,0c0.1,0,0.1-0.1,0.2-0.1
	c-0.1,0-0.1-0.1-0.2-0.1c-0.1-0.1-0.3-0.1-0.5-0.2c-0.6-0.4-0.9,0.2-1.3,0.4c-0.1,0.1-0.2,0.1-0.3,0.1c0.1,0.1,0.2,0.3,0.3,0.3
	c0.7,0,1.3,0.3,1.9,0.5c0.5,0.1,1,0.2,1.2,0.8c0,0.1,0.3,0.1,0.4,0.1c0-0.1,0-0.2,0-0.3c-0.1-0.1-0.1-0.2-0.2-0.3
	c0.5-0.2,0.2-0.4,0-0.6s-0.4-0.3-0.5,0.1C75.1,48.3,74.5,47.8,73.8,47.9z M34.4,18c0.2-0.1,0.3-0.6,0.4-0.9c0-0.2,0.1-0.4,0.2-0.6
	c0.3-0.6,0.3-0.5-0.4-0.8c-1-0.4-2-0.8-2.9-1.3c-0.6-0.3-1.3-0.4-1.9-0.6c-0.5-0.1-0.9,0-1.2,0.4c-0.2,0.4-0.2,0.5,0.2,0.8
	c0.2,0.1,0.3,0.7,0.7,0.3c0.1,0.3,0.3,0.5,0.4,0.8c0,0.1,0.2,0.1,0.2,0.1c0.5-0.3,0.6,0.1,0.8,0.4c0,0.1,0.3,0,0.4,0
	c0.1-0.1,0-0.6,0.3-0.1c0.1,0.2,0.3,0.3,0.5,0.5c0,0.1,0,0.3,0,0.3c0.4,0.1,0.8,0.5,1.3,0.3c0.1,0,0.1-0.1,0.1-0.2
	C33.9,17.5,33.9,18.3,34.4,18z M32.4,62.6c0.2,0.1,0.3,0.2,0.5,0.3c0,0,0.1-0.1,0.2-0.2c0.2,0,0.2-0.8,0.7-0.2
	c0.2,0.2,0.6,0,0.8,0.5c0.1,0.3,0.6,0.4,1.1,0.4s-0.4-0.6,0.2-0.5c0.2,0,0.4,0.3,0.5-0.2c0-0.1,0.3-0.1,0.4-0.1
	c0.3,0,0.5,0.1,0.7,0.2c0.1,0.1,0.2,0,0.6-0.4c0.1-0.2,0.3-0.3,0.5-0.3c0.3-0.1,0.5-0.2,0.6-0.5c0-0.1,0.1-0.3,0.1-0.4
	c0,0.1,0.1,0.3,0.1,0.5c0,0.1,0.1,0.2,0.1,0.3c0.1-0.1,0.2-0.1,0.3-0.2c0.2-0.3,0.5-0.6,0.7-0.9c0.4-0.6,0.7-1.3,1.6-1.2
	c0.2-0.3,0.6-0.7,0.7-1.1c0.1-0.3,0.2-0.5,0.6-0.5c0.5,0.1,0.6-0.2,0.7-0.6c0.1-0.6,0.1-0.7,0.6-0.5c0.4,0.2,0.3-0.1,0.3-0.3
	c0-0.1-0.2-0.3-0.2-0.4c-0.1-0.3,0.1-0.5,0.5-0.4c0.2,0.1,0.2-0.1,0.2-0.2c0-0.2-0.1-0.4-0.2-0.6c0.4-0.1,0.4,0.3,0.6,0.5
	c0,0.1,0.2,0.1,0.3,0.1c0.1-0.1,0.4-0.3,0-0.4c-0.1,0-0.1-0.1-0.1-0.2c0,0,0.1,0,0.2,0c0.5,0.1,0.5,0,0.4-0.5s-0.3-0.4-0.5-0.2
	c-0.4,0.2-0.7,0.5-1,0.7c-0.7,0.8-1.5,1.5-2.2,2.3c-1.4,1.5-2.7,3-4.5,4.1c-1.8,1-3.4,0.9-5.2,0.1c-1.2-0.5-2.1-1.2-2.5-2.5
	c-0.3-1.1-0.6-2.1-0.2-3.3c0.3-0.9,0.5-2,0.7-3c0-0.3,0.1-0.5,0.2-0.8s0.2-0.7,0.3-1.1c0-0.4-0.2-1,0.4-1.2c0.1,0,0.1-0.1,0.1-0.2
	c-0.1-0.3-0.3-0.6-0.2-0.8c0-0.2,0.3-0.3,0.4-0.6c0.1-0.4,0.1-0.8-0.1-1.1c-0.1-0.2-0.2-0.4-0.3-0.6C32,46.3,32,46.1,32,46
	c0.2,0,0.3,0.1,0.4,0.2s0.2,0.1,0.3,0.1c0,0,0-0.1,0-0.2c0-0.1,0-0.1-0.1-0.2c-0.2-0.3-0.5-0.5-0.7-0.8c-0.1,0.3-0.3,0.7-0.3,1
	c0.1,1.2-0.6,2.4-0.5,3.6c0,0.2,0,0.3,0,0.4c-0.6,1.5-0.7,3.2-1.3,4.7c-0.2,0.4,0.2,0.7-0.1,1.1c-0.2,0.3-0.2,0.7-0.3,1
	c-0.1,0.3-0.1,0.7-0.2,1.1c-0.1,0.2-0.1,0.4,0,0.6c0,0.1,0.2,0.1,0.3,0.1c0.1-0.2,0.2-0.3,0.3-0.5c0.1-0.1,0.1-0.1,0.2-0.1
	c0.1,0.1,0.1,0.1,0.1,0.2c-0.1,0.4-0.2,0.9-0.3,1.3c0,0.1-0.1,0.2-0.1,0.3s0.1,0.2,0.2,0.3c0.3,0.1,0.2-0.1,0.3-0.2
	c0.1-0.2,0.2-0.3,0.3-0.4c0,0.2,0.1,0.3,0.1,0.5c0.1,0.3,0,0.5,0.1,0.8c0.1,0.2,0.2,0.3,0.3,0.5c0.1-0.1,0.3-0.3,0.4-0.4
	c0-0.1,0.1-0.1,0.1-0.2c0,0,0.1,0.1,0.1,0.2c0.1,0.1,0.2,0.3,0.2,0.5c0.1,0.6,0.4,0.7,0.8,0.4c0,0,0.1,0.1,0.2,0.2
	C32.7,62.2,32.5,62.3,32.4,62.6z M70.6,56.8c0.1,0,0.2-0.1,0.3-0.1c-0.1,0-0.2-0.1-0.3-0.1c-1.3-0.4-2.4-0.1-3.6,0.4
	c-0.3,0.1-0.7,0.2-1.1,0.3c-0.1,0-0.1,0.1-0.2,0.2c0.1,0,0.2,0.2,0.3,0.2c0.5,0,1,0.1,1.3-0.5c0.2-0.3,0.8-0.2,1.2-0.4
	c0.8-0.4,0.8-0.3,1.5,0.2c-0.1,0.1-0.4,0.3-0.6,0.4c-0.5-0.4-0.9-0.1-1.4,0.1c-0.2,0.1-0.7,0.3-0.7,0.4c0.1,0.5,0.6,0.1,0.9,0.2
	c0.5,0.1,1,0.1,1.3,0.7c1.3,0.4,2.3,1.5,3.7,1.3c0.1-0.1,0.2,0.1,0.3,0.2c-0.2,0-0.4,0-0.5,0s-0.3,0-0.1,0.2
	c0.2,0.2,0.4,0.3,0.6,0.5c0.4,0.6,0.8,1.2,1.2,1.8c0.2,0.3,0.1,1,0.8,0.9c0,0,0.1,0.1,0.1,0.2c0,0-0.1,0-0.2,0
	c-0.3-0.2-0.2,0.1-0.2,0.2c0.5,0.1,0.4,0.5,0.5,0.8c0.1,0.2,0.4,0.4,0.6,0.5c0.4,0.1,0.3,0.2,0.1,0.4c-0.1,0.1-0.2,0.3-0.2,0.4
	c0.1,0.2,0.3,0.3,0.4,0.5c-0.2,0-0.5,0-0.5,0.1c0,0.4-0.1,0.9,0,1.3c0.2,0.9,0.2,1.7,0.2,2.5c0,0.1,0.1,0.2,0.1,0.3
	c0-0.1,0.1-0.2,0.1-0.3c0-0.6,0-1.1,0-1.7c0-0.1,0.1-0.2,0.1-0.3c0,0.1,0.1,0.2,0.1,0.3c0,1,0,2.1,0,3.2c0,0.3-0.1,0.5-0.2,0.8
	c0,0.1-0.1,0.3-0.1,0.4c0-0.1-0.1-0.3-0.1-0.4c0-0.1-0.1-0.1-0.1-0.2c-0.1,0-0.1,0.1-0.2,0.1l-0.1,0.1c-0.4,0.3,0.5,0.8-0.1,1.1
	c-0.4,0.2-0.4,0.7-0.6,1.1c-0.2,0.3,0.1,0.4,0.3,0.5c0.2,0.1,0.5,0.4,0.6,0.4c0.6-0.4,1.3-0.7,1.9-1.1c0.1-0.1,0.1-0.2,0.2-0.3
	c-0.1,0-0.2-0.1-0.3-0.1c-0.2-0.1-0.5,0.5-0.7,0c0,0,0.5-0.3,0.7-0.5c0.5,0.1,0.8-0.2,1.1-0.5c0-0.1,0-0.2,0-0.2h-0.2
	c-0.3,0.2-0.5,0.3-0.7,0.5c-0.3-0.6-0.3-0.6,0.3-1c0.1,0.1,0.3,0.2,0.3,0.2c0.4-0.2,0.7-0.5,1.1-0.7c0.1-0.1,0.1-0.1,0.2-0.2
	C79.9,72,79.8,72,79.7,72c-0.5,0.2-0.9,0.5-1.3,0.7c0-0.3,0.1-0.6,0.5-0.7c0.6-0.2,0.7-0.7,0.9-1.1c0.1-0.1,0.1-0.3,0-0.3
	c0,0-0.2,0-0.3,0c-0.2,0.1-0.4,0.2-0.6,0.2c-0.1,0-0.1-0.1-0.2-0.1c0.1,0,0.1-0.1,0.2-0.1H79c0.3-0.1,0.7-0.2,0.8-0.4
	c0.1-0.2-0.2-0.5-0.3-0.8c-0.1-0.1-0.1-0.3,0-0.5c0.1-0.2,0.3-0.5,0.4-0.7c0.1-0.1,0.1-0.5,0.1-0.5c-0.9-0.3-0.2-0.8-0.1-1.1
	c0.2-0.6,0.3-0.6-0.4-0.7c-0.4,0-0.5-0.2-0.3-0.5c0.1-0.1,0.2-0.3,0.3-0.5c0.1-0.4,0-0.4-0.3-0.2c0-0.1-0.1-0.3-0.1-0.4
	c0-0.8-0.2-1.5-0.8-2.1c-0.2-0.2-0.1-0.7-0.3-1c-0.2-0.3-0.4-0.6-0.6-0.9c-0.1-0.1-0.1-0.3-0.2-0.4c-0.4-0.4-1.1-0.3-1.4-0.9
	c-0.3-0.5-0.9-0.5-1.5-0.5c0,0-0.1-0.1-0.1-0.2c0-0.2,0.5,0,0.2-0.3c-0.1-0.1-0.5-0.1-0.5,0.4c0,0.1-0.1,0.2-0.2,0.3
	c-0.2,0.1-0.5,0.3-0.6,0.2c-0.3-0.3,0.1-0.4,0.2-0.6c0.3-0.3,0-0.5-0.2-0.5c-0.4-0.1-0.9-0.1-1.4-0.1s-0.4-0.2-0.2-0.4
	c0-0.1,0.1-0.2,0.1-0.3c0-0.1,0-0.2,0-0.2h-0.2C71,57.1,70.5,57,70,57C70.1,56.7,70.4,56.8,70.6,56.8z M29.6,30L29.6,30
	c0,0.1,0.1,0.3,0.2,0.3c0.4-0.1,0.7-0.1,1.1-0.2c0.1,0.2-0.5,0.4,0,0.4c0.8,0,1.7,0,2.6,0c0.2,0,0.4,0,0.5,0
	c0.1,0.1,0.1,0.2,0.2,0.3c-0.1,0.1-0.3,0.2-0.3,0.2c-0.8-0.4-1.7-0.1-2.5-0.2c-0.1,0-0.2,0.1-0.3,0.1c0.1,0.1,0.2,0.3,0.3,0.3
	c0.8,0,1.3,0.8,2.1,0.6l0.1,0.2c-0.1,0.1-0.2,0.1-0.3,0.2c0.1,0,0.1,0.1,0.2,0.1c2.1,1.2,4.3,2.3,6.4,3.4c0.8,0.5,1.6,0.9,2.4,1.3
	c1.1,0.5,2.1,1,3.2,1.5c0.1,0,0.2,0.1,0.3,0.1c0.4-0.3,0.7-0.7,1.3-0.8c-0.4-0.6,0.3-0.3,0.3-0.3c0.4,0.4,0.9,0.3,1.4,0.2
	c0.4-0.1,0.9,0,1.4,0c0.4,0,0.7-0.1,0.9-0.5c0-0.1,0.1-0.1,0.2-0.2c-0.1,0-0.1-0.1-0.2-0.1c-0.1,0-0.3,0-0.4-0.1
	c-0.1-0.1-0.1-0.2-0.2-0.3c0.1,0,0.1-0.1,0.2-0.1c0.2,0,0.4,0,0.6,0c0.1,0,0.2-0.1,0.3-0.1c-0.1,0-0.2-0.1-0.3-0.1
	c-0.3-0.1-0.6-0.2-0.8-0.3c-0.2-0.1-0.4-0.2-0.1-0.5l-0.1-0.3c-0.5,0,0-0.7-0.5-0.8c-0.2-0.1-0.3,0.3-0.5,0c0-0.1,0.3-0.3,0.4-0.4
	c0.1-0.1,0.1-0.4,0-0.4c-0.5-0.3-0.5-0.8-0.6-1.2C49,32,49,31.9,48.7,31.8s-0.3-0.3-0.1-0.6c0,0,0-0.3-0.1-0.3
	c-0.3-0.2-0.1-0.6-0.3-0.7C48,30,47.7,30,47.4,29.9c-0.1,0-0.1-0.1-0.2-0.1c0.1,0,0.2-0.1,0.3-0.1c0.2,0,0.3,0,0.4,0
	c0.1,0,0.1-0.1,0.2-0.1c0-0.1-0.1-0.1-0.1-0.2c-0.3-0.5-0.9-0.4-1.3-0.7c-0.1-0.1-0.3-0.2-0.4-0.3c0.3,0.1,0.7,0.2,1,0.2
	c0.2,0,0.4,0,0.6,0c-0.1-0.1-0.2-0.3-0.4-0.4c-0.3-0.1-0.6-0.2-0.9-0.3c-0.8-0.2-1.6-0.3-2.4-0.4c-0.1,0-0.1,0.1-0.2,0.1
	c0.1,0.1,0.1,0.3,0.2,0.3c0.6,0.2,1.2,0.3,1.8,0.4c0.1,0,0.2,0.1,0.3,0.2c-0.9-0.1-1.9-0.2-2.8-0.3c-0.1-0.1-0.1-0.1-0.2-0.1
	c-0.9-0.8-1.8-0.5-2.8-0.3c-0.1,0.1-0.2,0.1-0.3,0.1c-1.1,0.1-2.3,0.1-3.4,0.3c-1.8,0.3-3.7,0.1-5.4,0.9c-0.2,0.1-0.4,0.2-0.6,0.3
	c-0.1,0.1-0.1,0.1-0.2,0.2c0.1,0.1,0.1,0.1,0.2,0.1c0.1,0,0.3-0.1,0.4-0.1c0.4,0,0.7,0.1,1.1,0.2c-0.3,0.1-0.5,0.2-0.8,0.3
	c-0.2,0-0.4,0-0.6,0C30.5,29.6,30,29.9,29.6,30z M32.6,59.9c0.4,0.5,0.9,0.9,1.5,1.1s1.3,0.1,1.6,0.8c0.1,0.2,0.8-0.1,1-0.4
	c0-0.1,0-0.2,0.1-0.2c0.7-0.2,1.4-0.4,2.1-0.6c0.1,0,0.3-0.1,0.4-0.2c0.8-1.3,2.1-1.8,3-2.9c0.5-0.7,1-1.3,1.6-1.9
	c0.9-0.8,1.8-1.6,2.8-2.3c0.3-0.3,0.5-0.4,0.1-0.7c-1-0.8-1.9-1.5-2.9-2.3c-0.2-0.1-0.4-0.2-0.5-0.3c-0.6-0.6-1.3-1-2.1-1.4
	c-1.5-0.8-2.8-1.6-4.2-2.4c-0.7-0.4-1.6-0.8-2.4-1.1c-0.5-0.2-0.7,0-0.7,0.5v0.1c0.1,2-0.3,4-1.1,5.9c-0.3,0.8-0.7,1.6-1,2.4
	s-0.6,1.6-0.5,2.6C31.2,57.8,31.7,58.8,32.6,59.9z M80.7,44.8c-0.5,0.2-1.2-0.1-1.7,0.3c-1.3-0.2-2.4,0.5-3.6,0.5
	c-1,0-2.1,0.3-3.1,0.5c-0.3,0.1-0.7,0.2-1,0.2c-0.8,0-1.7,0.2-2.5,0.4c-0.2,0.1-0.3,0.1-0.5,0.1c-2.1,0-4.1,0.5-6.1,0.9
	c-0.4,0.1-0.7,0.2-0.9,0.5c-1.1,1.2-1.8,2.5-2.6,3.9c-0.6,1-1.3,2.1-1.9,3.1c-0.1,0.2-0.1,0.3-0.2,0.4c0.2,0.1,0.3,0.1,0.5,0.1
	c0.8,0,1.3-0.5,1.9-0.9c1.5-1.1,3-2.3,4.4-3.5c0.7-0.6,1.4-1.3,2.3-1.8c0.8-0.5,1.6-1.1,2.4-1.5s1.7-0.6,2.5-1c1-0.5,2-0.5,3-0.4
	c0.8,0.1,1.7,0.1,2.5,0.5c0.7,0.4,1,1,0.9,1.9c0,0.2,0.1,0.5,0.1,0.7c0.2-0.1,0.3-0.3,0.5-0.4c0.1,0,0.1-0.1,0.1-0.1
	c0.1-0.3,0.3-0.5,0.4-0.8c0.3,0.4-0.1,0.7-0.2,1c-0.2,0.7-0.8,1.1-1.2,1.5c-0.2,0.2-0.5,0.5-0.8,0.8c-0.2,0.2-0.4,0.4-0.6,0.6
	c0.3,0,0.6,0.2,0.9,0.1c0.7-0.2,1.3-0.5,2-0.7c0.3-0.1,0.1-0.2,0-0.3c-0.1-0.2-0.1-0.3-0.2-0.4c0.1,0,0.3,0,0.4,0.1
	c0.1,0,0.2,0.2,0.3,0.2c0.1,0.1,0.2,0,0.3-0.1c0.1-0.1,0.1-0.2,0.1-0.2c-0.1-0.1-0.2-0.1-0.3-0.2c0.1,0,0.2-0.1,0.3-0.1
	c0.3,0,0.6,0,0.9-0.1c0.1,0,0.2-0.1,0.3-0.2c-0.1-0.1-0.1-0.1-0.2-0.2c-0.1-0.1-0.2-0.1-0.3-0.2c-0.2-0.1,0-0.3,0.1-0.3
	c0.3-0.1,0.6-0.2,0.7-0.1c0.6,0.3,0.8-0.3,1.2-0.4c0,0,0-0.2,0-0.3c-0.1-0.1-0.3-0.3,0-0.3s0.5-0.3,0.8-0.4c0.4-0.2,0.5-0.4,0.1-0.7
	c-0.2-0.1-0.3-0.2,0-0.3c0.5-0.2,1.1-0.4,1.1-1.1c0,0,0.3,0,0.4-0.1c0.3-0.2,0.7-0.3,1-0.5c0.1,0,0.1-0.2,0.1-0.3
	c-0.1-0.1-0.3-0.1-0.4-0.1c-0.1,0-0.1,0.1-0.2,0.1s-0.2-0.1-0.3-0.1c0.1-0.1,0.1-0.2,0.2-0.2c0.1-0.1,0.3-0.1,0.5-0.2
	c0.1,0,0.1-0.1,0.2-0.1c-0.1,0-0.1-0.1-0.2-0.1c-0.4,0-0.8,0-1.2,0C82.8,44.5,81.7,44.7,80.7,44.8z M62.9,45
	c-0.8,0.2-1.7,0.4-2.6,0.5c-1.7,0.2-3.1-0.2-4.5-1.1c-1.5-1-3-1.8-4.7-2.5c-1.5-0.6-2.9-1.5-4.3-2.2c-0.5-0.2-0.9-0.5-1.4-0.7
	c-3.5-1.8-6.9-3.6-10.4-5.4c-2.3-1.1-4.6-2.3-6.9-3.5c-0.3-0.1-0.5-0.4-0.8-0.5c-0.1-0.1-0.3-0.2-0.5-0.2c-0.1,0-0.3,0.1-0.4,0.1
	c0,0.1,0.1,0.2,0.2,0.3c0.6,0.3,1.3,0.7,2,1.1c0.4,0.3,0.7,0.5,1.1,0.7c0.1,0.1,0.1,0.1,0.1,0.2c-0.1,0.1-0.1,0.1-0.2,0.1
	s-0.2,0-0.3-0.1c-1-0.6-2-1.2-3-1.8c-0.1,0-0.2,0-0.3,0c0.1,0.1,0,0.3,0.1,0.4c0.2,0.2,0.5,0.4,0.8,0.5c2.4,1.2,4.8,2.5,7.2,3.7
	c1.7,0.9,3.4,1.8,5.1,2.7c2.5,1.4,5,2.9,7.5,4.3c1.3,0.8,2.7,1.5,4.1,2.2c1.9,1.1,3.9,2.1,5.9,3.1c0.2,0.1,0.3,0.2,0.5,0.3
	c0.3,0.1,0.5-0.1,0.6-0.3c0.1-0.1,0-0.4-0.1-0.5c-0.7-0.4-1.4-0.7-2.1-1.1c-0.2-0.1-0.5-0.2-0.8-0.4c-0.1-0.1-0.1-0.2-0.2-0.3
	c0.1-0.1,0.2-0.1,0.3-0.1c0.8,0.3,1.6,0.6,2.3,1.1c0.6,0.4,1.3,0.6,2,0.5c0.9-0.1,1.8-0.3,2.7-0.5c0.1-0.1,0.3-0.2,0.4-0.2
	c0.4,0,0.7,0.1,1.1,0.1c0.2-0.5,0.7-0.1,1-0.3s0.7-0.1,1.1-0.2c0.1,0,0.1-0.1,0.2-0.1c-0.1,0-0.1-0.1-0.2-0.1c-0.2,0-0.4,0-0.7,0
	C64.2,44.8,63.6,44.9,62.9,45z M66.7,52c0,0,0.1-0.1,0.1-0.2c-0.1,0-0.2-0.1-0.3-0.1c-0.1-0.1-0.2-0.1-0.3-0.2
	c0.2-0.1,0.3-0.3,0.5-0.3c0.1,0,0.2,0.1,0.3,0.2c0.2,0.1,0.4,0.3,0.2,0.6c0.3,0,0.5,0.1,0.8,0.1s0.6,0.1,0.8,0
	c0.5-0.3,1.1-0.2,1.7-0.2c0.7,0,1.3-0.1,2-0.2c0.5,0,0.5-0.4,0.8-0.5c0.3,0,0.7,0.2,0.8-0.3c0,0,0.2-0.1,0.3-0.1
	c0.2,0,0.6,0.5,0.7-0.2c0.2,0.1,0.3,0.5,0.5,0.1c0,0-0.3-0.2-0.4-0.4c0,0,0-0.1,0-0.2c0.1,0,0.2,0,0.3,0c0.1,0.1,0.3,0.3,0.4,0.4
	c0.1,0,0.2,0,0.2,0c0.1,0,0.1-0.1,0.1-0.2c-0.1-0.6-1.1-1.5-1.6-1.3c-0.4,0.2-0.6,0-0.8-0.2c-0.4-0.5-0.8-0.6-1.3-0.3
	c-0.1,0.1-0.3,0.1-0.4,0.1c-0.7-0.1-1.4,0-2.1,0.2c-0.1,0-0.2,0.1-0.3,0.1c0.1,0,0.2,0.1,0.3,0.1c0,0.1-0.1,0.2-0.1,0.2
	c-0.5,0.1-1.1,0.3-1.7,0.3c-0.4,0.1-0.6,0.3-0.8,0.5c-0.1,0.1-0.1,0.1-0.1,0.2c0.1,0.1,0.1,0.1,0.2,0.1c0.3,0,0.6-0.2,0.9-0.2
	c0.1,0,0.3,0.1,0.4,0.1c-0.2,0.1-0.3,0.1-0.4,0.2c-0.3,0.2-0.8,0.3-1.2,0.2c-0.4-0.1-0.8,0.1-1.1,0.3c-0.7,0.5-1.4,1.1-2,1.7
	c-0.1,0-0.1,0.2-0.2,0.3c0.1,0,0.2,0,0.5,0.1C65,52.7,65.7,52.4,66.7,52z M65.8,53.4c-0.5,0.1-1.1,0.1-1.6,0.2
	c-1,0.2-1.8,0.5-2.6,1.2c-0.8,0.6-1.6,1.1-2.4,1.7c-0.2,0.2-0.3,0.4,0,0.6c0.1,0.1,0.1,0.2,0.2,0.3c0.3,0.3,0.5,0.6,0.8,0.9
	c0.3-0.2,0.5-0.4,0.8-0.6c1.4-1.2,2.9-1.8,4.6-2.2c0.9-0.2,1.7-0.2,2.5-0.2c0.6,0,1.3,0,2,0c0.4,0,0.5-0.2,0.4-0.5
	c-0.1-0.3-0.2-0.6-0.3-0.9c-0.3-0.7-0.8-1.1-1.8-1C67.7,53,66.8,53.1,65.8,53.4z M59.2,59.9c0.7,0.5,1,1.3,1.2,2.2
	c0.1,0.3,0.3,0.1,0.4,0.1s0.4,0.1,0.5,0.3c0.1,0.2,0,0.4,0,0.6c0.2,0,0.3,0.2,0.3,0.4c0,0.1,0.2,0.3,0.2,0.3
	c0.6-0.3,0.6,0.1,0.7,0.5c0.1,0.3,0.2,0.6,0.3,0.8c0,0.1,0.3,0.2,0.3,0.2c0.6-0.5,0.5,0,0.6,0.4c0.1,0.3,0.2,0.7,0.7,0.7
	c0,0,0.1,0.3,0.2,0.4c0.2,0.4,0.3,0.8,0.5,1.2c0.1,0.2,0.3,0.2,0.5,0.1c0.2-0.2,0.3-0.1,0.3,0.1c0.1,0.2,0.1,0.3,0.2,0.4
	c0.1-0.1,0.3-0.2,0.3-0.3c0.1-0.4-0.1-0.8-0.3-1.1c-0.6-0.9-1.2-1.8-1.9-2.7c-1.5-2-3-4.1-4.5-6.1c-0.1-0.1-0.1-0.3-0.2-0.3
	c-0.3,0-0.5-0.1-0.8-0.1c-0.1,0-0.1,0.3-0.2,0.5c-0.1,0.3-0.2,0.5-0.2,0.7c0,0.2,0.1,0.2,0.3,0.1c0.1,0,0.1-0.1,0.2-0.1
	c0.3,0,0.5,0.1,0.3,0.6C59.1,59.8,59.1,59.9,59.2,59.9z M69.3,65.7c-0.8-0.9-1.7-1-2.7-0.9c-0.1,0-0.1,0.1-0.2,0.1
	c0.1,0,0.1,0.1,0.2,0.1c0.3,0.1,0.7,0.2,1.1,0.3c0.6,0.2,1.1,0.5,1.3,1.1c0.3,0.6,0.6,1.2,0.8,1.8c0.6,1.5,0,2.8-0.9,4
	c-0.4,0.6-1.2,0.6-1.8,0.7c-0.7,0.1-1.4,0.2-2-0.4c-0.1-0.1-0.3-0.2-0.4-0.2c-0.3-0.1-0.7-0.1-0.8,0c-0.3,0.3,0.1,0.5,0.3,0.7
	c0.4,0.6,0.9,0.8,1.5,1.1c0.3,0.2,0.5,0.1,0.8,0c0.2,0,0.5,0.3,0.7,0.4c0,0,0.1,0,0.2,0c0.7-0.5,1.8-0.6,2.2-1.6
	c0.1-0.2,0.3-0.4,0.4-0.6c0.5-0.8,0.9-1.7,0.7-2.6C70.8,68.1,70.4,66.9,69.3,65.7z M23.3,26.1c0.2,0.3,0.4,0.6,0.5,0.9
	c0.1,0.4,0.2,0.4,0.5,0.2c0.2-0.2,0.2,0.1,0.2,0.2c0.1,0.3,0.2,0.7,0.4,0.8s0.6-0.1,0.9-0.2c0.2-0.1,0.3-0.1,0.4-0.2
	c-0.1-0.1-0.1-0.3-0.2-0.4c-1.1-1.3-2.5-2.3-3.9-3.2c-1.2-0.8-2.5-1.5-3.8-2.2c-1.2-0.7-2.5-1-3.8-1.4c-0.1,0-0.3,0-0.3,0.1
	c-0.1,0.1-0.2,0.3-0.1,0.4c0.3,0.3,0.7,0.5,1,0.8c0.1,0,0.2,0,0.2,0c0.5-0.7,0.8-0.2,1.1,0.1c0.2,0.2,0.4,0.4,0.6,0.6
	c0.1,0.1,0.4,0,0.4,0c0.1-0.3,0.2-0.5,0.5-0.2c0.2,0.3,0.6,0.4,0.8,0.7c0.3,0.5,0.6,0.6,1.1,0.3c0,0,0.2,0.1,0.3,0.1
	c-0.1,0.1-0.3,0.1-0.3,0.2c-0.1,0.1-0.1,0.4-0.1,0.4c0.3,0.1,0.6,0.3,0.9,0.4c0.5,0.2,1,0.1,1.2,0.7c0,0.1,0.2,0.2,0.2,0.2
	c0.5-0.2,0.5,0.9,1.2,0.4C23.2,25.9,23.4,25.9,23.3,26.1z M43.6,25.9c0.2-0.1,0.3-0.2,0.4-0.3c0-0.1-0.1-0.3-0.2-0.4
	c-0.6-0.7-1.3-1.5-1.8-2.3c-0.9-1.5-2.1-2.8-3.2-4.1c-0.2-0.2-0.4-0.4-0.6-0.6c-0.1-0.1-0.3,0-0.3,0c-0.2,0.3-0.2,0.5-0.3,0.8
	c0,0,0.1,0.1,0.2,0.1c0.3,0.1,0.5,0,0.5,0.4c-0.1,0.6,0.6,0.2,0.7,0.6c0.1,0.3-0.1,0.8,0.3,0.8c0.6,0,0.3,0.9,1,0.9
	c0.3,0,0.3,0.8,0.8,1c0.1,0,0.1,0.2,0.1,0.4c0,0.1,0.1,0.3,0.1,0.3c0.8,0,0.6,0.9,1.1,1.2c0.2,0.1,0.3,0.3,0.3,0.5
	c0.1,0.6,0.1,0.6,0.8,0.6C43.4,25.8,43.5,25.8,43.6,25.9z M59.7,63.6c1,0.9,1.8,1.8,2.7,2.7c0.1,0,0.2,0,0.2,0v-0.2
	c-0.4-0.4-0.7-0.8-1-1.2c-0.6-0.7-1.2-1.4-1.8-2.1c-0.1-0.1-0.2-0.1-0.3-0.2c0,0.1,0,0.2-0.1,0.4C59.5,63.2,59.5,63.4,59.7,63.6z
	 M76.3,77.1c0.2-0.1,0.4-0.3,0.6-0.5c-0.2,0-0.5-0.1-0.7-0.1c-0.4-0.1-0.8-0.1-1.1,0.2c-0.2,0.1-0.3,0.3-0.4,0.4
	c0.2,0.1,0.4,0.2,0.7,0.3c-0.1,0,0,0,0,0C75.7,77.3,76,77.3,76.3,77.1z M31.3,27.7c0,0,0.1,0,0.2,0c0.3,0,0.5-0.1,0.8-0.1
	c-0.2,0-0.5-0.1-0.8-0.1c-1.3,0.2-2.6,0.5-3.9,0.5c-0.1,0-0.1,0.1-0.2,0.1c0.1,0,0.1,0.1,0.2,0.1c0.2,0,0.4,0,0.8,0
	C29.2,28,30.2,28.1,31.3,27.7z M58.1,66.8c0.4,0.2,0.8,0.3,1.2,0.4c0,0,0.1-0.1,0.2-0.1c0-0.1,0-0.1-0.1-0.2
	c-0.3-0.3-0.6-0.5-0.8-0.8c-0.2-0.2-0.3-0.1-0.4,0c-0.2,0.1-0.3,0.3-0.4,0.4C57.9,66.6,57.9,66.7,58.1,66.8z M71.6,54.6
	c0.1,0,0.2-0.1,0.3-0.2c0.1,0,0.1-0.1,0.1-0.2c0.1-0.2,0.4-0.5,0.1-0.8h-0.2c-0.2,0.3-0.4,0.6-0.6,0.8
	C71.4,54.5,71.5,54.6,71.6,54.6z M64.6,56.8L64.5,57c0.1,0.1,0.3,0.3,0.4,0.3c0.2,0.1,0.3,0,0.2-0.2c-0.1,0,0-0.2,0.1-0.2
	c0.3,0,0.6-0.1,0.9-0.2c0,0,0.1-0.1,0.2-0.1c-0.1,0-0.1-0.1-0.2-0.1s-0.2,0-0.5,0C65.5,56.6,65.1,56.7,64.6,56.8z M66.2,59.8
	c0,0.1,0.1,0.1,0.1,0.2c0-0.1,0.1-0.1,0.1-0.2c0.2-0.2,0.3-0.5,0.4-0.7c0-0.1,0.1-0.3,0-0.4c-0.1-0.1-0.3-0.1-0.4-0.1
	c-0.1,0-0.2,0.2-0.2,0.3s0,0.2,0,0.3l0,0C66.2,59.3,66.2,59.5,66.2,59.8z M63.5,59.1L63.3,59c-0.2,0.1-0.4,0.3-0.6,0.4
	c-0.1,0,0,0.2,0,0.2c0.2,0.2,0.4,0.3,0.6,0.4c0,0.1,0.2,0,0.2-0.1c0-0.2,0-0.3,0-0.4l0,0C63.5,59.4,63.6,59.3,63.5,59.1z M72.1,55.9
	c0.1,0,0.2,0,0.3-0.1c0.3-0.2,0.3-0.8,0-1c-0.1,0-0.2,0-0.2,0c-0.1,0.2-0.2,0.5-0.3,0.7C72,55.6,72,55.7,72.1,55.9z M38.8,46.1
	c0-0.1,0-0.2,0-0.2c-0.4-0.3-0.7-0.7-1-1c-0.1,0-0.1,0-0.2,0c0,0.1,0,0.2,0,0.2c0.3,0.4,0.7,0.7,1,1.1
	C38.7,46.1,38.8,46.1,38.8,46.1z M47,54.1c-0.1,0.3,0.3,0.8,0.6,0.8c0.1,0,0.3,0,0.3-0.1s0-0.2-0.1-0.3c-0.2-0.2-0.4-0.3-0.6-0.4
	L47.1,54C47.1,54,47,54,47,54.1z M63.6,57.9c-0.2-0.3,0.1-0.5,0.1-0.7h-0.2c-0.1,0.1-0.3,0.3-0.4,0.4c-0.1,0.1-0.1,0.2-0.2,0.3
	c0.2,0,0.3,0.1,0.4,0.1C63.4,57.9,63.6,57.9,63.6,57.9z M69.7,74.5c0-0.1,0.1-0.3,0.1-0.5c-0.1-0.1-0.3-0.1-0.4-0.1
	s-0.2,0.1-0.3,0.2c-0.1,0.1-0.1,0.2-0.2,0.3c0.1,0,0.2,0.1,0.3,0.1C69.4,74.5,69.6,74.5,69.7,74.5z M57.6,58.2
	c0.3-0.2,0.7-0.3,1-0.5c0.1,0,0.1,0,0.1-0.1s-0.1-0.1-0.1-0.1c-0.3-0.1-1,0.2-1.2,0.6l0,0C57.4,58.2,57.5,58.2,57.6,58.2z
	 M76.2,69.8c-0.1,0-0.3,0.1-0.3,0.2c-0.1,0.3-0.1,0.5-0.1,0.8H76c0.1-0.2,0.2-0.4,0.3-0.6C76.2,70,76.2,69.9,76.2,69.8z M68.6,67
	c-0.2-0.2-0.4-0.5-0.7-0.7c0,0-0.1,0.1-0.2,0.1c0.3,0.3,0.5,0.6,0.8,0.9C68.5,67.2,68.6,67.1,68.6,67z M76.8,71.3L76.8,71.3
	c-0.2-0.1-0.3,0-0.3,0c-0.1,0.2-0.2,0.4-0.2,0.6c0,0.1,0.2,0.2,0.3,0.3c0,0,0.1-0.1,0.1-0.2c0,0,0-0.1,0-0.2l0,0
	C76.7,71.7,76.7,71.5,76.8,71.3z M73,57.4c0.1,0,0.1-0.1,0.2-0.1c-0.1,0-0.1-0.1-0.2-0.1c-0.1-0.1-0.3-0.2-0.5-0.2s-0.3,0.2-0.4,0.3
	c0.1,0.1,0.2,0.2,0.3,0.2c0,0,0.1,0,0.2,0l0,0C72.7,57.5,72.8,57.5,73,57.4z M48.4,27.5c-0.1-0.1-0.2-0.1-0.3-0.2c0,0.2,0,0.3,0,0.4
	s0.1,0.2,0.1,0.3c0,0.1,0.1,0.3,0.1,0.4c0.1-0.1,0.2-0.3,0.2-0.4C48.4,27.8,48.4,27.7,48.4,27.5z M59.8,48.3c-0.2,0-0.4,0.1-0.6,0.2
	c-0.1,0.1-0.1,0.2-0.1,0.2c0.1,0.2,0.7,0.1,0.8-0.1v-0.1C59.9,48.5,59.8,48.4,59.8,48.3z M58.1,51.9c0.1-0.1,0.2-0.2,0.2-0.3
	c0.1-0.2,0.4-0.3,0.1-0.6h-0.1c-0.1,0.2-0.2,0.3-0.3,0.5C58,51.7,58.1,51.8,58.1,51.9z M58.4,68.3c-0.1-0.2-0.3-0.3-0.5-0.4L57.8,68
	c0.2,0.2,0.3,0.4,0.5,0.7C58.4,68.4,58.5,68.3,58.4,68.3z M63.4,68.6c0,0,0.2-0.1,0.3-0.1c-0.2-0.2-0.4-0.4-0.6-0.6
	c0,0.1,0,0.1-0.1,0.3C63.1,68.3,63.3,68.4,63.4,68.6z M61.7,66.9c0.1,0.1,0.3,0.2,0.4,0.2c0,0,0.1-0.2,0.2-0.3
	c-0.1-0.1-0.2-0.2-0.4-0.3C61.8,66.6,61.7,66.7,61.7,66.9z M36.6,17.9c0.2,0.1,0.3,0.1,0.5,0.2c0,0.1,0.1,0,0.2,0
	c0-0.1,0-0.3-0.1-0.3c-0.1-0.1-0.3-0.2-0.5-0.2c-0.1,0-0.1,0.1-0.2,0.1C36.5,17.8,36.5,17.8,36.6,17.9z M57.2,53c0.1,0,0.2,0,0.2,0
	c0.1-0.2,0.2-0.3,0.3-0.5c0.1,0,0-0.1,0-0.2c-0.1,0-0.2,0-0.2,0.1c-0.1,0.2-0.1,0.3-0.2,0.5C57.3,53,57.3,53,57.2,53z M31.4,44.6
	L31.4,44.6h0.2c0-0.2,0-0.5,0-0.7c0-0.1-0.1-0.2-0.1-0.3c0,0.1-0.1,0.2-0.1,0.3c0,0,0,0.1,0,0.2l0,0C31.4,44.3,31.4,44.4,31.4,44.6z
	 M13.6,20.7c0.2-0.2,0.3-0.4,0.5-0.6C14,20,13.9,20,13.9,20c-0.2,0.2-0.3,0.4-0.5,0.6C13.5,20.7,13.6,20.8,13.6,20.7z M71,71.6
	L71,71.6c0.2-0.2,0.3-0.3,0.4-0.5c0.1-0.1,0-0.2,0-0.3c0,0,0,0-0.1-0.1C71.2,71,71.1,71.3,71,71.6z M88.6,43.5
	C88.6,43.5,88.7,43.5,88.6,43.5v-0.2c-0.2,0-0.5,0-0.7,0c-0.1,0-0.2,0.1-0.3,0.1c0.1,0,0.2,0.1,0.3,0.1s0.2,0,0.3,0c0,0.1,0,0,0,0
	C88.3,43.5,88.4,43.6,88.6,43.5z M28.7,36.7c0.2,0.2,0.3,0.4,0.4,0.6c0.1,0,0.1-0.1,0.1-0.1c0-0.3-0.1-0.5-0.3-0.7
	c0-0.1-0.1-0.1-0.1-0.1C28.8,36.5,28.7,36.5,28.7,36.7C28.7,36.6,28.7,36.7,28.7,36.7z"/>
<path class="st0" d="M66.9,31.4c1.2,0.4,2.3,0.8,3.4,1.2c0.2,0.1,0.3,0.3,0.5,0.4c-1.4,0.2-2.7-0.3-3.9-0.8
	c-0.4-0.2-0.8-0.4-0.9-0.9C66.3,31.4,66.6,31.4,66.9,31.4z"/>
<path class="st0" d="M72.1,33.5c-0.2,0-0.5,0.1-0.7,0.1c0-0.5-0.4-0.2-0.7-0.3c0-0.1,0-0.2,0-0.3C71.3,33,71.8,32.9,72.1,33.5z"/>
<path class="st0" d="M64.8,30.8c0.3,0.1,0.8-0.1,0.7,0.5c-0.3,0-0.5,0-0.7,0c-0.1,0-0.2-0.1-0.3-0.2C64.6,31,64.6,30.9,64.8,30.8z"
	/>
<path class="st0" d="M77.6,35.2c0.1,0,0.1,0.3,0.1,0.4c-0.2,0-0.4-0.3-0.6,0c0-0.1-0.1-0.1-0.1-0.2c-0.1-0.1-0.2-0.2-0.3-0.3
	c-0.1,0-0.1-0.1-0.2-0.2C76.9,35,77.2,35.1,77.6,35.2z"/>
<path class="st0" d="M64,30.6c0.2,0.1,0.6-0.1,0.7,0.3c-0.1,0-0.1,0.1-0.2,0.2C64.1,31.1,64,31,64,30.6z"/>
<path class="st0" d="M47.2,50.2c0.8,0.4,1.4,0.9,1.6,1.7l0,0c-0.3-0.2-0.5-0.3-0.8-0.5c-0.2,0-0.3-0.1-0.5-0.2
	c-0.4-0.3-0.8-0.7-1-1.2C46.7,50.1,46.9,50.2,47.2,50.2z"/>
<path class="st0" d="M60.3,65.6l-0.1,0.2c-0.2-0.1-0.6,0.2-0.7-0.3v-0.1c-0.1-0.1-0.1-0.3-0.1-0.5C60,64.8,60.1,65.3,60.3,65.6z"/>
<path class="st0" d="M50.6,38.8c1,0,1.8,0.4,2.6,1c0.1,0,0.1,0.1,0.1,0.2c-0.1,0-0.1,0-0.2,0C52.3,39.6,51.3,39.4,50.6,38.8
	L50.6,38.8z"/>
<path class="st0" d="M80.8,41.4c0.5-0.1,0.6,0.4,1,0.5l0.1,0.1c-0.1,0-0.1,0.1-0.2,0.1c-0.4-0.1-0.8-0.2-1.2-0.3l-0.1-0.1
	c0.1,0,0.1-0.1,0.2-0.1C80.7,41.6,80.7,41.5,80.8,41.4L80.8,41.4z"/>
<path class="st0" d="M53.5,39c0.6-0.1,1.1,0.3,1.7,0.4c0.1,0.1,0.1,0.1,0.1,0.2c-0.1,0.1-0.1,0.1-0.2,0.1
	C54.6,39.5,53.9,39.5,53.5,39L53.5,39z"/>
<path class="st0" d="M80.8,41.4L80.8,41.4c-0.4,0-0.6-0.2-0.8-0.5l0.1-0.1c0.2,0.1,0.4,0.2,0.6,0.4C80.8,41.2,80.8,41.3,80.8,41.4
	L80.8,41.4z"/>
<path class="st0" d="M30.2,35.3c-0.2-0.5-0.6-1-0.5-1.6l0.1-0.1l0.1,0.1c0.2,0.5,0.4,0.9,0.5,1.4c0,0.1-0.1,0.2-0.1,0.3
	C30.3,35.3,30.2,35.3,30.2,35.3z"/>
<path class="st0" d="M31,34.4L31,34.4h0.2c0,0.5,0.2,0.9,0.6,1.3c0,0.1-0.1,0.2-0.1,0.2h-0.1C31.2,35.7,30.8,34.9,31,34.4z"/>
<path class="st0" d="M32.3,34.7c0.2,0.2,0.4,0.3,0.3,0.5c0,0.3,0.6,0.5,0.3,0.9c-0.2-0.2-0.4-0.4-0.5-0.7
	C32.3,35.2,32.3,34.9,32.3,34.7L32.3,34.7z"/>
<path class="st0" d="M35.3,42.6c-0.1-0.2-0.2-0.5-0.3-0.7v-0.1c0.1,0,0.2,0,0.2,0c0.1,0.1,0.3,0.2,0.4,0.4c0.1,0.1-0.1,0.2-0.1,0.3
	C35.4,42.5,35.4,42.6,35.3,42.6z"/>
<path class="st0" d="M43.8,48.9c-0.4-0.2-0.7-0.5-0.7-1C43.5,48.1,43.9,48.3,43.8,48.9z"/>
<path class="st0" d="M29.7,36c-0.1-0.2-0.2-0.5-0.3-0.7l0.1-0.1c0.1,0.1,0.2,0.2,0.3,0.3s0.1,0.3,0.1,0.5C29.8,36,29.8,36,29.7,36z"
	/>
<path class="st0" d="M65.4,59.2c0,0.8,0,1.5,0,2.2c0,0.1-0.1,0.2-0.1,0.3c0-0.1,0-0.2-0.1-0.3c-0.1-0.2-0.2-0.4-0.3-0.6
	c0-0.1-0.1-0.4,0-0.4C65.4,60.1,65.3,59.6,65.4,59.2c-0.1-0.2-0.1-0.2,0-0.3C65.4,59.1,65.4,59.2,65.4,59.2z"/>
<path class="st0" d="M52.8,43.7c-0.1-0.1-0.1-0.1-0.1-0.2c0.1,0,0.2,0,0.2,0c0.3,0.2,0.5,0.3,0.8,0.5c0.1,0.1,0.1,0.1,0.1,0.2
	c0.1,0,0,0.1-0.1,0.1C53.4,44.1,53.2,44,52.8,43.7z"/>
<path class="st0" d="M71.4,49.3c0.2,0,0.4,0.1,0.4,0.2c0.1,0.3-0.1,0.3-0.3,0.3c-0.1,0-0.2-0.1-0.5-0.2
	C71.3,49.4,71.4,49.3,71.4,49.3z"/>
<path class="st1" d="M9,19.7c0,0.2-0.3,1.1-0.5,1.1S8.1,20.7,8,20.6c-0.2-0.2,0.1-0.2,0.2-0.2c0.4,0,0.3-0.3,0.4-0.6
	c0-0.1,0.1-0.1,0.2-0.2C8.9,19.6,9,19.6,9,19.7z"/>
<path class="st0" d="M33.1,17.1c-0.4,0-0.7-0.1-1-0.2C32.5,16.5,32.6,16.5,33.1,17.1z"/>
</svg>
