<?xml version="1.0" encoding="utf-8"?>
<!-- Generator: Adobe Illustrator 21.1.0, SVG Export Plug-In . SVG Version: 6.00 Build 0)  -->
<svg version="1.1" xmlns="http://www.w3.org/2000/svg" xmlns:xlink="http://www.w3.org/1999/xlink" x="0px" y="0px"
	 viewBox="0 0 24.6 57.8" style="enable-background:new 0 0 24.6 57.8;" xml:space="preserve">
<style type="text/css">
	.st0{fill:none;}
	.st1{fill:#231F20;}
</style>
<g id="big_x5F_stripe">
	<path class="st0" d="M13.3,7.7c2.1,0.5,3.7,2.3,3.7,4.6v0.8c0.9,1.1,1.7,2.6,2.4,4.3c1,2.7,1.7,6,2.3,9.4c0.8-0.2,1.4-0.6,1.9-1.2
		C22.6,20.6,19.3,8.2,13.3,7.7z"/>
	<path class="st0" d="M5.3,18.9c-2-5.2-2.6-9.5-1.7-12.7c0.5-2,1.7-3.6,3.4-4.7c0.6-0.4,1.2-0.7,1.8-0.9C6.6,1.2,4.7,2.4,3.3,4
		C3,4.5,2.7,4.9,2.6,5.4C0.8,10.1,2,17.6,6.1,26.8c0.5,1.1,1,2.1,1.5,3.2v-5.9c-0.1-0.1-0.1-0.2-0.2-0.3C6.9,22.7,6.1,21,5.3,18.9z"
		/>
	<path class="st0" d="M7,3.9c0.5-0.9,1.3-1.6,2.2-2.2c-1.7,0.7-3,1.7-3.7,3.2c-1,1.9-1.7,5.6,0.6,12.4c0.5,1.4,1.1,2.8,1.6,3.9v-4.9
		c-0.3-0.8-0.7-1.8-1-2.9C5.5,9.4,5.6,6.2,7,3.9z"/>
	<path class="st0" d="M0,24.8v6.3L7.6,45v-4.9c-1.5-2.5-3.8-6.5-5.9-11.2C1.1,27.5,0.5,26.2,0,24.8z"/>
	<polygon class="st0" points="0,36.7 7.6,50.5 7.6,47.7 0,33.8 	"/>
	<path class="st0" d="M0,44.3l6.7,12.2C7.3,55.8,7.6,55,7.6,54v-0.8L0,39.3V44.3z"/>
	<path class="st0" d="M19.6,2.4c-1.2-0.5-2.6-0.9-4.1-0.9c-3.7,0-6.2,1-7.4,3.1c-1.3,2.1-1.1,5-0.5,7.6c0-0.9,0.3-1.7,0.7-2.3
		c0,0-0.1,0-0.1,0.1c0,0,0.7-5.8,6.9-5.8c6.2,0,9.5,6.5,9.5,11.8v-3.7C24.6,8.3,22.7,4.7,19.6,2.4z"/>
	<path class="st0" d="M17,19c0.8,2.2,1.3,4.8,1.7,7.3c0.5,0.3,1.1,0.5,1.7,0.6c-0.8-4.7-1.8-8.7-3.5-11.6V19z"/>
	<path class="st1" d="M2.6,5.4C2.7,4.9,3,4.5,3.3,4C1.2,6.2,0,9.1,0,12.3v12.5c0.5,1.3,1.1,2.7,1.7,4.1c2.1,4.7,4.4,8.7,5.9,11.2V30
		c-0.5-1-1-2.1-1.5-3.2C2,17.6,0.8,10.1,2.6,5.4z"/>
	<path class="st1" d="M15.1,4.2c-6.2,0-6.9,5.8-6.9,5.8c0,0,0.1-0.1,0.1-0.1c0.8-1.3,2.3-2.2,4-2.2c0.3,0,0.7,0,1,0.1
		c6,0.5,9.3,12.8,10.4,17.9c0.6-0.7,1-1.5,1-2.5V16C24.6,10.7,21.4,4.2,15.1,4.2z"/>
	<path class="st1" d="M0,54c0,2.1,1.7,3.8,3.8,3.8c1.2,0,2.2-0.5,2.9-1.4L0,44.3V54z"/>
</g>
<g id="little_x5F_stripe_x5F_top">
	<path class="st1" d="M17,23.1c0,1.3,0.7,2.5,1.7,3.2c-0.4-2.5-1-5-1.7-7.3V23.1z"/>
	<path class="st1" d="M17,13.1v2.2c1.7,2.9,2.6,6.9,3.5,11.6c0.1,0,0.2,0,0.3,0c0.3,0,0.6-0.1,0.9-0.1c-0.6-3.4-1.3-6.7-2.3-9.4
		C18.8,15.7,18,14.2,17,13.1z"/>
</g>
<g id="little_x5F_stripe_x5F_med">
	<path class="st1" d="M5.4,4.9c0.8-1.4,2-2.5,3.7-3.2c1.5-0.9,3.4-1.4,5.8-1.5C14.1,0.1,13.2,0,12.3,0c-1.2,0-2.4,0.2-3.5,0.5
		C8.1,0.8,7.5,1.1,7,1.4C5.3,2.5,4.1,4.1,3.6,6.2c-0.9,3.2-0.3,7.5,1.7,12.7c0.8,2,1.6,3.8,2.2,4.9c0.1,0.1,0.1,0.2,0.2,0.3v-2.9
		C7.1,20,6.5,18.7,6,17.3C3.7,10.5,4.4,6.8,5.4,4.9z"/>
	<path class="st1" d="M8.1,4.6c1.2-2,3.7-3.1,7.4-3.1c1.5,0,2.9,0.4,4.1,0.9c-1.4-1-3-1.8-4.7-2.1c-2.4,0.1-4.3,0.6-5.8,1.5
		C8.3,2.3,7.5,3.1,7,3.9c-1.4,2.3-1.5,5.5-0.4,9.5c0.3,1.1,0.7,2.1,1,2.9v-4c0,0,0-0.1,0-0.1C7,9.6,6.8,6.7,8.1,4.6z"/>
</g>
<g id="little_x5F_stripe_x5F_low">
	<polygon class="st1" points="0,33.8 7.6,47.7 7.6,45 0,31.2 	"/>
	<polygon class="st1" points="0,39.3 7.6,53.2 7.6,50.5 0,36.7 	"/>
</g>
</svg>
